<mxfile host="app.diagrams.net" agent="Mozilla/5.0 (Windows NT 10.0; Win64; x64) AppleWebKit/537.36 (KHTML, like Gecko) Chrome/126.0.0.0 Safari/537.36 OPR/112.0.0.0" version="24.7.7">
  <diagram name="Page-1" id="evIeKzIpnHdOSmaLCxZJ">
    <mxGraphModel grid="1" page="1" gridSize="10" guides="1" tooltips="1" connect="1" arrows="1" fold="1" pageScale="1" pageWidth="850" pageHeight="1100" math="0" shadow="0">
      <root>
        <mxCell id="0" />
        <mxCell id="1" parent="0" />
        <mxCell id="NpHVf7ny2RbtNi30LPNa-1" style="edgeStyle=orthogonalEdgeStyle;rounded=0;orthogonalLoop=1;jettySize=auto;html=1;exitX=0.5;exitY=0;exitDx=0;exitDy=0;entryX=0.5;entryY=1;entryDx=0;entryDy=0;endArrow=none;endFill=0;" edge="1" parent="1" source="NpHVf7ny2RbtNi30LPNa-4" target="NpHVf7ny2RbtNi30LPNa-74">
          <mxGeometry relative="1" as="geometry" />
        </mxCell>
        <mxCell id="NpHVf7ny2RbtNi30LPNa-4" value="Instância de item" style="shape=ext;margin=3;double=1;whiteSpace=wrap;html=1;align=center;" vertex="1" parent="1">
          <mxGeometry x="2138" y="1610" width="100" height="40" as="geometry" />
        </mxCell>
        <mxCell id="NpHVf7ny2RbtNi30LPNa-5" style="edgeStyle=orthogonalEdgeStyle;rounded=0;orthogonalLoop=1;jettySize=auto;html=1;exitX=0.75;exitY=1;exitDx=0;exitDy=0;entryX=0;entryY=0.5;entryDx=0;entryDy=0;endArrow=none;endFill=0;" edge="1" parent="1" target="NpHVf7ny2RbtNi30LPNa-49">
          <mxGeometry relative="1" as="geometry">
            <mxPoint x="2780" y="1670" as="sourcePoint" />
            <mxPoint x="2850" y="1840" as="targetPoint" />
            <Array as="points">
              <mxPoint x="2780" y="1650" />
              <mxPoint x="2760" y="1650" />
              <mxPoint x="2760" y="1760" />
            </Array>
          </mxGeometry>
        </mxCell>
        <mxCell id="NpHVf7ny2RbtNi30LPNa-6" style="edgeStyle=orthogonalEdgeStyle;rounded=0;orthogonalLoop=1;jettySize=auto;html=1;entryX=0.5;entryY=0;entryDx=0;entryDy=0;endArrow=none;endFill=0;" edge="1" parent="1" source="NpHVf7ny2RbtNi30LPNa-11" target="NpHVf7ny2RbtNi30LPNa-91">
          <mxGeometry relative="1" as="geometry">
            <Array as="points">
              <mxPoint x="2790" y="1690" />
              <mxPoint x="3590" y="1690" />
            </Array>
            <mxPoint x="3000" y="1670" as="sourcePoint" />
            <mxPoint x="3480" y="2007" as="targetPoint" />
          </mxGeometry>
        </mxCell>
        <mxCell id="NpHVf7ny2RbtNi30LPNa-7" value="(1,1)" style="edgeLabel;html=1;align=center;verticalAlign=middle;resizable=0;points=[];" connectable="0" vertex="1" parent="NpHVf7ny2RbtNi30LPNa-6">
          <mxGeometry x="-0.9537" relative="1" as="geometry">
            <mxPoint x="764" y="280" as="offset" />
          </mxGeometry>
        </mxCell>
        <mxCell id="NpHVf7ny2RbtNi30LPNa-8" style="edgeStyle=orthogonalEdgeStyle;rounded=0;orthogonalLoop=1;jettySize=auto;html=1;exitX=1;exitY=0.75;exitDx=0;exitDy=0;endArrow=none;endFill=0;entryX=0.5;entryY=0;entryDx=0;entryDy=0;" edge="1" parent="1" source="NpHVf7ny2RbtNi30LPNa-11" target="NpHVf7ny2RbtNi30LPNa-121">
          <mxGeometry relative="1" as="geometry">
            <Array as="points">
              <mxPoint x="2820" y="1655" />
              <mxPoint x="2820" y="1670" />
              <mxPoint x="3710" y="1670" />
            </Array>
          </mxGeometry>
        </mxCell>
        <mxCell id="NpHVf7ny2RbtNi30LPNa-9" style="edgeStyle=orthogonalEdgeStyle;rounded=0;orthogonalLoop=1;jettySize=auto;html=1;exitX=1;exitY=0.25;exitDx=0;exitDy=0;entryX=0.653;entryY=0.004;entryDx=0;entryDy=0;entryPerimeter=0;endArrow=none;endFill=0;" edge="1" parent="1" target="NpHVf7ny2RbtNi30LPNa-11">
          <mxGeometry relative="1" as="geometry">
            <mxPoint x="2699.94" y="1613.8399999999997" as="targetPoint" />
            <mxPoint x="2780.9400000000005" y="1536.1533333333332" as="sourcePoint" />
            <Array as="points">
              <mxPoint x="2781" y="1538" />
              <mxPoint x="2765" y="1538" />
              <mxPoint x="2765" y="1610" />
            </Array>
          </mxGeometry>
        </mxCell>
        <mxCell id="NpHVf7ny2RbtNi30LPNa-10" value="é destino de" style="edgeLabel;html=1;align=center;verticalAlign=middle;resizable=0;points=[];" connectable="0" vertex="1" parent="NpHVf7ny2RbtNi30LPNa-9">
          <mxGeometry x="0.6672" y="1" relative="1" as="geometry">
            <mxPoint x="-1" y="-10" as="offset" />
          </mxGeometry>
        </mxCell>
        <mxCell id="NpHVf7ny2RbtNi30LPNa-11" value="Área" style="whiteSpace=wrap;html=1;align=center;" vertex="1" parent="1">
          <mxGeometry x="2700" y="1610" width="100" height="60" as="geometry" />
        </mxCell>
        <mxCell id="NpHVf7ny2RbtNi30LPNa-12" style="edgeStyle=orthogonalEdgeStyle;rounded=0;orthogonalLoop=1;jettySize=auto;html=1;exitX=1;exitY=0.75;exitDx=0;exitDy=0;entryX=0;entryY=0.5;entryDx=0;entryDy=0;endArrow=none;endFill=0;" edge="1" parent="1" source="NpHVf7ny2RbtNi30LPNa-14" target="NpHVf7ny2RbtNi30LPNa-71">
          <mxGeometry relative="1" as="geometry" />
        </mxCell>
        <mxCell id="NpHVf7ny2RbtNi30LPNa-13" style="edgeStyle=orthogonalEdgeStyle;rounded=0;orthogonalLoop=1;jettySize=auto;html=1;endArrow=none;endFill=0;startArrow=block;startFill=0;" edge="1" parent="1" source="NpHVf7ny2RbtNi30LPNa-14">
          <mxGeometry relative="1" as="geometry">
            <mxPoint x="1765" y="1810" as="targetPoint" />
          </mxGeometry>
        </mxCell>
        <mxCell id="NpHVf7ny2RbtNi30LPNa-14" value="Item" style="whiteSpace=wrap;html=1;align=center;" vertex="1" parent="1">
          <mxGeometry x="1715" y="1720" width="100" height="40" as="geometry" />
        </mxCell>
        <mxCell id="NpHVf7ny2RbtNi30LPNa-15" style="edgeStyle=orthogonalEdgeStyle;rounded=0;orthogonalLoop=1;jettySize=auto;html=1;exitX=0.5;exitY=0;exitDx=0;exitDy=0;entryX=0.5;entryY=1;entryDx=0;entryDy=0;endArrow=none;endFill=0;" edge="1" parent="1" source="NpHVf7ny2RbtNi30LPNa-16" target="NpHVf7ny2RbtNi30LPNa-41">
          <mxGeometry relative="1" as="geometry" />
        </mxCell>
        <mxCell id="NpHVf7ny2RbtNi30LPNa-16" value="Região" style="whiteSpace=wrap;html=1;align=center;" vertex="1" parent="1">
          <mxGeometry x="3110" y="1620" width="100" height="40" as="geometry" />
        </mxCell>
        <mxCell id="NpHVf7ny2RbtNi30LPNa-17" value="Personagem" style="whiteSpace=wrap;html=1;align=center;" vertex="1" parent="1">
          <mxGeometry x="2540" y="1928" width="100" height="40" as="geometry" />
        </mxCell>
        <mxCell id="NpHVf7ny2RbtNi30LPNa-18" value="" style="endArrow=none;html=1;rounded=0;entryX=0;entryY=0.5;entryDx=0;entryDy=0;" edge="1" parent="1" target="NpHVf7ny2RbtNi30LPNa-16">
          <mxGeometry relative="1" as="geometry">
            <mxPoint x="2990" y="1639.6599999999999" as="sourcePoint" />
            <mxPoint x="3090" y="1640" as="targetPoint" />
          </mxGeometry>
        </mxCell>
        <mxCell id="NpHVf7ny2RbtNi30LPNa-19" style="edgeStyle=orthogonalEdgeStyle;rounded=0;orthogonalLoop=1;jettySize=auto;html=1;entryX=0.5;entryY=0;entryDx=0;entryDy=0;endArrow=none;endFill=0;" edge="1" parent="1">
          <mxGeometry relative="1" as="geometry">
            <mxPoint x="1765" y="1660" as="sourcePoint" />
            <mxPoint x="1765" y="1720" as="targetPoint" />
          </mxGeometry>
        </mxCell>
        <mxCell id="NpHVf7ny2RbtNi30LPNa-20" value="(1, 1)" style="edgeLabel;html=1;align=center;verticalAlign=middle;resizable=0;points=[];" connectable="0" vertex="1" parent="NpHVf7ny2RbtNi30LPNa-19">
          <mxGeometry x="0.6437" relative="1" as="geometry">
            <mxPoint y="1" as="offset" />
          </mxGeometry>
        </mxCell>
        <mxCell id="NpHVf7ny2RbtNi30LPNa-21" value="contém" style="shape=rhombus;perimeter=rhombusPerimeter;whiteSpace=wrap;html=1;align=center;" vertex="1" parent="1">
          <mxGeometry x="1720" y="1600" width="90" height="60" as="geometry" />
        </mxCell>
        <mxCell id="NpHVf7ny2RbtNi30LPNa-22" style="edgeStyle=orthogonalEdgeStyle;rounded=0;orthogonalLoop=1;jettySize=auto;html=1;entryX=1;entryY=0.5;entryDx=0;entryDy=0;endArrow=none;endFill=0;" edge="1" parent="1" source="NpHVf7ny2RbtNi30LPNa-24" target="NpHVf7ny2RbtNi30LPNa-4">
          <mxGeometry relative="1" as="geometry" />
        </mxCell>
        <mxCell id="NpHVf7ny2RbtNi30LPNa-23" value="(0, N)" style="edgeLabel;html=1;align=center;verticalAlign=middle;resizable=0;points=[];" connectable="0" vertex="1" parent="NpHVf7ny2RbtNi30LPNa-22">
          <mxGeometry x="0.4956" y="1" relative="1" as="geometry">
            <mxPoint x="2" y="-11" as="offset" />
          </mxGeometry>
        </mxCell>
        <mxCell id="NpHVf7ny2RbtNi30LPNa-24" value="contida em" style="shape=rhombus;perimeter=rhombusPerimeter;whiteSpace=wrap;html=1;align=center;" vertex="1" parent="1">
          <mxGeometry x="2540" y="1605" width="90" height="50" as="geometry" />
        </mxCell>
        <mxCell id="NpHVf7ny2RbtNi30LPNa-25" value="pertence a" style="shape=rhombus;perimeter=rhombusPerimeter;whiteSpace=wrap;html=1;align=center;" vertex="1" parent="1">
          <mxGeometry x="2900" y="1620" width="90" height="40" as="geometry" />
        </mxCell>
        <mxCell id="NpHVf7ny2RbtNi30LPNa-26" value="" style="shape=link;html=1;rounded=0;entryX=1;entryY=0.5;entryDx=0;entryDy=0;exitX=0;exitY=0.5;exitDx=0;exitDy=0;" edge="1" parent="1" source="NpHVf7ny2RbtNi30LPNa-25" target="NpHVf7ny2RbtNi30LPNa-11">
          <mxGeometry relative="1" as="geometry">
            <mxPoint x="2830" y="1660" as="sourcePoint" />
            <mxPoint x="2990" y="1660" as="targetPoint" />
          </mxGeometry>
        </mxCell>
        <mxCell id="NpHVf7ny2RbtNi30LPNa-27" value="(1, N)" style="edgeLabel;html=1;align=center;verticalAlign=middle;resizable=0;points=[];" connectable="0" vertex="1" parent="NpHVf7ny2RbtNi30LPNa-26">
          <mxGeometry x="-0.3945" y="1" relative="1" as="geometry">
            <mxPoint x="-40" y="-11" as="offset" />
          </mxGeometry>
        </mxCell>
        <mxCell id="NpHVf7ny2RbtNi30LPNa-28" value="(1,1)" style="resizable=0;html=1;whiteSpace=wrap;align=right;verticalAlign=bottom;" connectable="0" vertex="1" parent="1">
          <mxGeometry x="3110" y="1640" as="geometry" />
        </mxCell>
        <mxCell id="NpHVf7ny2RbtNi30LPNa-29" value="" style="endArrow=none;html=1;rounded=0;exitX=1;exitY=0.5;exitDx=0;exitDy=0;" edge="1" parent="1" source="NpHVf7ny2RbtNi30LPNa-24">
          <mxGeometry relative="1" as="geometry">
            <mxPoint x="2660" y="1630" as="sourcePoint" />
            <mxPoint x="2700" y="1630" as="targetPoint" />
          </mxGeometry>
        </mxCell>
        <mxCell id="NpHVf7ny2RbtNi30LPNa-30" value="(1, N)" style="edgeLabel;html=1;align=center;verticalAlign=middle;resizable=0;points=[];" connectable="0" vertex="1" parent="NpHVf7ny2RbtNi30LPNa-29">
          <mxGeometry x="0.3911" y="-1" relative="1" as="geometry">
            <mxPoint y="-11" as="offset" />
          </mxGeometry>
        </mxCell>
        <mxCell id="NpHVf7ny2RbtNi30LPNa-31" style="edgeStyle=orthogonalEdgeStyle;rounded=0;orthogonalLoop=1;jettySize=auto;html=1;endArrow=none;endFill=0;exitX=0.5;exitY=1;exitDx=0;exitDy=0;" edge="1" parent="1" source="NpHVf7ny2RbtNi30LPNa-32" target="NpHVf7ny2RbtNi30LPNa-11">
          <mxGeometry relative="1" as="geometry">
            <mxPoint x="2750" y="1590" as="sourcePoint" />
            <Array as="points">
              <mxPoint x="2700" y="1605" />
              <mxPoint x="2720" y="1605" />
            </Array>
          </mxGeometry>
        </mxCell>
        <mxCell id="NpHVf7ny2RbtNi30LPNa-32" value="&lt;u&gt;id area&lt;/u&gt;" style="ellipse;whiteSpace=wrap;html=1;align=center;" vertex="1" parent="1">
          <mxGeometry x="2670" y="1565" width="60" height="20" as="geometry" />
        </mxCell>
        <mxCell id="NpHVf7ny2RbtNi30LPNa-33" style="edgeStyle=orthogonalEdgeStyle;rounded=0;orthogonalLoop=1;jettySize=auto;html=1;exitX=0.5;exitY=1;exitDx=0;exitDy=0;entryX=0.5;entryY=0;entryDx=0;entryDy=0;endArrow=none;endFill=0;startArrow=none;startFill=0;" edge="1" parent="1" source="NpHVf7ny2RbtNi30LPNa-206" target="NpHVf7ny2RbtNi30LPNa-59">
          <mxGeometry relative="1" as="geometry">
            <Array as="points">
              <mxPoint x="2590" y="2230" />
              <mxPoint x="2530" y="2230" />
              <mxPoint x="2530" y="2300" />
            </Array>
          </mxGeometry>
        </mxCell>
        <mxCell id="NpHVf7ny2RbtNi30LPNa-34" style="edgeStyle=orthogonalEdgeStyle;rounded=0;orthogonalLoop=1;jettySize=auto;html=1;exitX=0;exitY=0.5;exitDx=0;exitDy=0;entryX=1;entryY=0.5;entryDx=0;entryDy=0;endArrow=none;endFill=0;" edge="1" parent="1" source="NpHVf7ny2RbtNi30LPNa-38" target="NpHVf7ny2RbtNi30LPNa-100">
          <mxGeometry relative="1" as="geometry" />
        </mxCell>
        <mxCell id="NpHVf7ny2RbtNi30LPNa-35" style="edgeStyle=orthogonalEdgeStyle;rounded=0;orthogonalLoop=1;jettySize=auto;html=1;endArrow=none;endFill=0;entryX=0;entryY=0.5;entryDx=0;entryDy=0;" edge="1" parent="1" source="NpHVf7ny2RbtNi30LPNa-38" target="NpHVf7ny2RbtNi30LPNa-123">
          <mxGeometry relative="1" as="geometry">
            <mxPoint x="2710" y="2130" as="targetPoint" />
          </mxGeometry>
        </mxCell>
        <mxCell id="NpHVf7ny2RbtNi30LPNa-36" value="&lt;span style=&quot;color: rgba(0, 0, 0, 0); font-family: monospace; font-size: 0px; text-align: start; background-color: rgb(251, 251, 251);&quot;&gt;%3CmxGraphModel%3E%3Croot%3E%3CmxCell%20id%3D%220%22%2F%3E%3CmxCell%20id%3D%221%22%20parent%3D%220%22%2F%3E%3CmxCell%20id%3D%222%22%20value%3D%22(1%2C1)%22%20style%3D%22edgeLabel%3Bhtml%3D1%3Balign%3Dcenter%3BverticalAlign%3Dmiddle%3Bresizable%3D0%3Bpoints%3D%5B%5D%3B%22%20vertex%3D%221%22%20connectable%3D%220%22%20parent%3D%221%22%3E%3CmxGeometry%20x%3D%22449.85714285714266%22%20y%3D%22760%22%20as%3D%22geometry%22%2F%3E%3C%2FmxCell%3E%3C%2Froot%3E%3C%2FmxGraphModel%3E&lt;/span&gt;" style="edgeLabel;html=1;align=center;verticalAlign=middle;resizable=0;points=[];" connectable="0" vertex="1" parent="NpHVf7ny2RbtNi30LPNa-35">
          <mxGeometry x="-0.0385" y="1" relative="1" as="geometry">
            <mxPoint as="offset" />
          </mxGeometry>
        </mxCell>
        <mxCell id="NpHVf7ny2RbtNi30LPNa-37" value="(0, N)" style="edgeLabel;html=1;align=center;verticalAlign=middle;resizable=0;points=[];" connectable="0" vertex="1" parent="NpHVf7ny2RbtNi30LPNa-35">
          <mxGeometry x="0.0844" relative="1" as="geometry">
            <mxPoint x="5" as="offset" />
          </mxGeometry>
        </mxCell>
        <mxCell id="NpHVf7ny2RbtNi30LPNa-38" value="NPC" style="whiteSpace=wrap;html=1;align=center;" vertex="1" parent="1">
          <mxGeometry x="2540" y="2110" width="100" height="40" as="geometry" />
        </mxCell>
        <mxCell id="NpHVf7ny2RbtNi30LPNa-39" value="nome" style="ellipse;whiteSpace=wrap;html=1;align=center;" vertex="1" parent="1">
          <mxGeometry x="3130" y="1560" width="60" height="20" as="geometry" />
        </mxCell>
        <mxCell id="NpHVf7ny2RbtNi30LPNa-40" value="nome" style="ellipse;whiteSpace=wrap;html=1;align=center;" vertex="1" parent="1">
          <mxGeometry x="2670" y="1545" width="60" height="20" as="geometry" />
        </mxCell>
        <mxCell id="NpHVf7ny2RbtNi30LPNa-41" value="&lt;u&gt;id regiao&lt;/u&gt;" style="ellipse;whiteSpace=wrap;html=1;align=center;" vertex="1" parent="1">
          <mxGeometry x="3130" y="1580" width="60" height="20" as="geometry" />
        </mxCell>
        <mxCell id="NpHVf7ny2RbtNi30LPNa-42" value="" style="shape=link;html=1;rounded=0;entryX=0;entryY=0.5;entryDx=0;entryDy=0;exitX=1;exitY=0.5;exitDx=0;exitDy=0;" edge="1" parent="1" source="NpHVf7ny2RbtNi30LPNa-21" target="NpHVf7ny2RbtNi30LPNa-4">
          <mxGeometry relative="1" as="geometry">
            <mxPoint x="2615" y="1690" as="sourcePoint" />
            <mxPoint x="1918" y="1630" as="targetPoint" />
          </mxGeometry>
        </mxCell>
        <mxCell id="NpHVf7ny2RbtNi30LPNa-43" value="(1, N)" style="edgeLabel;html=1;align=center;verticalAlign=middle;resizable=0;points=[];" connectable="0" vertex="1" parent="NpHVf7ny2RbtNi30LPNa-42">
          <mxGeometry x="0.719" relative="1" as="geometry">
            <mxPoint as="offset" />
          </mxGeometry>
        </mxCell>
        <mxCell id="NpHVf7ny2RbtNi30LPNa-44" value="&lt;br&gt;&lt;span style=&quot;color: rgb(0, 0, 0); font-family: Helvetica; font-size: 11px; font-style: normal; font-variant-ligatures: normal; font-variant-caps: normal; font-weight: 400; letter-spacing: normal; orphans: 2; text-align: center; text-indent: 0px; text-transform: none; widows: 2; word-spacing: 0px; -webkit-text-stroke-width: 0px; white-space: nowrap; background-color: rgb(255, 255, 255); text-decoration-thickness: initial; text-decoration-style: initial; text-decoration-color: initial; display: inline !important; float: none;&quot;&gt;(0, N)&lt;/span&gt;&lt;div&gt;&lt;br/&gt;&lt;/div&gt;" style="edgeStyle=orthogonalEdgeStyle;rounded=0;orthogonalLoop=1;jettySize=auto;html=1;exitX=0.5;exitY=1;exitDx=0;exitDy=0;endArrow=none;endFill=0;entryX=1;entryY=0.5;entryDx=0;entryDy=0;" edge="1" parent="1" source="NpHVf7ny2RbtNi30LPNa-46">
          <mxGeometry x="0.8261" relative="1" as="geometry">
            <mxPoint x="2617.35" y="1768" as="sourcePoint" />
            <mxPoint x="2347.44" y="1813" as="targetPoint" />
            <Array as="points">
              <mxPoint x="2667" y="1810" />
              <mxPoint x="2347" y="1810" />
            </Array>
            <mxPoint as="offset" />
          </mxGeometry>
        </mxCell>
        <mxCell id="NpHVf7ny2RbtNi30LPNa-45" style="edgeStyle=orthogonalEdgeStyle;rounded=0;orthogonalLoop=1;jettySize=auto;html=1;entryX=0.25;entryY=1;entryDx=0;entryDy=0;endArrow=none;endFill=0;" edge="1" parent="1" source="NpHVf7ny2RbtNi30LPNa-46" target="NpHVf7ny2RbtNi30LPNa-11">
          <mxGeometry relative="1" as="geometry" />
        </mxCell>
        <mxCell id="NpHVf7ny2RbtNi30LPNa-46" value="apresenta" style="shape=rhombus;perimeter=rhombusPerimeter;whiteSpace=wrap;html=1;align=center;" vertex="1" parent="1">
          <mxGeometry x="2622.41" y="1715" width="90" height="50" as="geometry" />
        </mxCell>
        <mxCell id="NpHVf7ny2RbtNi30LPNa-47" style="edgeStyle=orthogonalEdgeStyle;rounded=0;orthogonalLoop=1;jettySize=auto;html=1;endArrow=none;endFill=0;" edge="1" parent="1" source="NpHVf7ny2RbtNi30LPNa-49" target="NpHVf7ny2RbtNi30LPNa-56">
          <mxGeometry relative="1" as="geometry">
            <Array as="points">
              <mxPoint x="3160" y="1760" />
            </Array>
          </mxGeometry>
        </mxCell>
        <mxCell id="NpHVf7ny2RbtNi30LPNa-48" value="(1, 1)" style="edgeLabel;html=1;align=center;verticalAlign=middle;resizable=0;points=[];" connectable="0" vertex="1" parent="NpHVf7ny2RbtNi30LPNa-47">
          <mxGeometry x="-0.5289" y="1" relative="1" as="geometry">
            <mxPoint x="-1" y="-7" as="offset" />
          </mxGeometry>
        </mxCell>
        <mxCell id="NpHVf7ny2RbtNi30LPNa-49" value="apresenta" style="shape=rhombus;perimeter=rhombusPerimeter;whiteSpace=wrap;html=1;align=center;" vertex="1" parent="1">
          <mxGeometry x="3000" y="1725" width="120" height="70" as="geometry" />
        </mxCell>
        <mxCell id="NpHVf7ny2RbtNi30LPNa-50" style="edgeStyle=orthogonalEdgeStyle;rounded=0;orthogonalLoop=1;jettySize=auto;html=1;endArrow=none;endFill=0;entryX=1;entryY=0.5;entryDx=0;entryDy=0;exitX=0.75;exitY=1;exitDx=0;exitDy=0;" edge="1" parent="1">
          <mxGeometry relative="1" as="geometry">
            <mxPoint x="2233" y="2508" as="targetPoint" />
            <Array as="points">
              <mxPoint x="3185" y="2513" />
              <mxPoint x="2233" y="2513" />
            </Array>
            <mxPoint x="3185" y="2043" as="sourcePoint" />
          </mxGeometry>
        </mxCell>
        <mxCell id="NpHVf7ny2RbtNi30LPNa-51" style="edgeStyle=orthogonalEdgeStyle;rounded=0;orthogonalLoop=1;jettySize=auto;html=1;exitX=0.5;exitY=1;exitDx=0;exitDy=0;entryX=0.75;entryY=0;entryDx=0;entryDy=0;endArrow=none;endFill=0;" edge="1" parent="1" source="NpHVf7ny2RbtNi30LPNa-175" target="NpHVf7ny2RbtNi30LPNa-70">
          <mxGeometry relative="1" as="geometry">
            <Array as="points">
              <mxPoint x="2945" y="2210" />
              <mxPoint x="2825" y="2210" />
            </Array>
          </mxGeometry>
        </mxCell>
        <mxCell id="NpHVf7ny2RbtNi30LPNa-52" value="(1,1)" style="edgeLabel;html=1;align=center;verticalAlign=middle;resizable=0;points=[];" connectable="0" vertex="1" parent="NpHVf7ny2RbtNi30LPNa-51">
          <mxGeometry x="0.2198" y="-3" relative="1" as="geometry">
            <mxPoint y="3" as="offset" />
          </mxGeometry>
        </mxCell>
        <mxCell id="NpHVf7ny2RbtNi30LPNa-53" style="edgeStyle=orthogonalEdgeStyle;rounded=0;orthogonalLoop=1;jettySize=auto;html=1;exitX=0.25;exitY=0;exitDx=0;exitDy=0;entryX=1;entryY=0.5;entryDx=0;entryDy=0;endArrow=none;endFill=0;" edge="1" parent="1" source="NpHVf7ny2RbtNi30LPNa-56" target="NpHVf7ny2RbtNi30LPNa-190">
          <mxGeometry relative="1" as="geometry" />
        </mxCell>
        <mxCell id="NpHVf7ny2RbtNi30LPNa-54" style="edgeStyle=orthogonalEdgeStyle;rounded=0;orthogonalLoop=1;jettySize=auto;html=1;exitX=1;exitY=0.25;exitDx=0;exitDy=0;entryX=0;entryY=0.5;entryDx=0;entryDy=0;endArrow=none;endFill=0;" edge="1" parent="1" source="NpHVf7ny2RbtNi30LPNa-56" target="NpHVf7ny2RbtNi30LPNa-102">
          <mxGeometry relative="1" as="geometry" />
        </mxCell>
        <mxCell id="NpHVf7ny2RbtNi30LPNa-55" style="edgeStyle=orthogonalEdgeStyle;rounded=0;orthogonalLoop=1;jettySize=auto;html=1;exitX=1;exitY=0.75;exitDx=0;exitDy=0;entryX=0;entryY=0.5;entryDx=0;entryDy=0;endArrow=none;endFill=0;" edge="1" parent="1" source="NpHVf7ny2RbtNi30LPNa-56" target="NpHVf7ny2RbtNi30LPNa-279">
          <mxGeometry relative="1" as="geometry">
            <Array as="points">
              <mxPoint x="3220" y="2035" />
              <mxPoint x="3220" y="2157" />
            </Array>
          </mxGeometry>
        </mxCell>
        <mxCell id="NpHVf7ny2RbtNi30LPNa-56" value="Jogador" style="whiteSpace=wrap;html=1;align=center;" vertex="1" parent="1">
          <mxGeometry x="3110" y="2005" width="100" height="40" as="geometry" />
        </mxCell>
        <mxCell id="NpHVf7ny2RbtNi30LPNa-57" style="edgeStyle=orthogonalEdgeStyle;rounded=0;orthogonalLoop=1;jettySize=auto;html=1;exitX=0;exitY=0.75;exitDx=0;exitDy=0;jumpStyle=arc;endArrow=none;endFill=0;entryX=0;entryY=0.5;entryDx=0;entryDy=0;" edge="1" parent="1" source="NpHVf7ny2RbtNi30LPNa-59" target="NpHVf7ny2RbtNi30LPNa-237">
          <mxGeometry relative="1" as="geometry">
            <mxPoint x="2410" y="2661.4285714285716" as="targetPoint" />
            <Array as="points">
              <mxPoint x="2380" y="2330" />
              <mxPoint x="2380" y="2660" />
            </Array>
          </mxGeometry>
        </mxCell>
        <mxCell id="NpHVf7ny2RbtNi30LPNa-58" value="(1,N)" style="edgeLabel;html=1;align=center;verticalAlign=middle;resizable=0;points=[];" connectable="0" vertex="1" parent="NpHVf7ny2RbtNi30LPNa-57">
          <mxGeometry x="0.3807" y="1" relative="1" as="geometry">
            <mxPoint as="offset" />
          </mxGeometry>
        </mxCell>
        <mxCell id="NpHVf7ny2RbtNi30LPNa-59" value="Inimigo" style="whiteSpace=wrap;html=1;align=center;" vertex="1" parent="1">
          <mxGeometry x="2470" y="2300" width="100" height="40" as="geometry" />
        </mxCell>
        <mxCell id="NpHVf7ny2RbtNi30LPNa-60" style="edgeStyle=orthogonalEdgeStyle;rounded=0;orthogonalLoop=1;jettySize=auto;html=1;exitX=1;exitY=0.25;exitDx=0;exitDy=0;endArrow=none;endFill=0;jumpStyle=arc;" edge="1" parent="1" source="NpHVf7ny2RbtNi30LPNa-66">
          <mxGeometry relative="1" as="geometry">
            <mxPoint x="3540" y="2310" as="targetPoint" />
          </mxGeometry>
        </mxCell>
        <mxCell id="NpHVf7ny2RbtNi30LPNa-61" style="edgeStyle=orthogonalEdgeStyle;rounded=0;orthogonalLoop=1;jettySize=auto;html=1;exitX=0.25;exitY=1;exitDx=0;exitDy=0;endArrow=none;endFill=0;entryX=0.5;entryY=0;entryDx=0;entryDy=0;" edge="1" parent="1" source="NpHVf7ny2RbtNi30LPNa-66" target="NpHVf7ny2RbtNi30LPNa-163">
          <mxGeometry relative="1" as="geometry">
            <mxPoint x="2655.2857142857147" y="2350" as="targetPoint" />
          </mxGeometry>
        </mxCell>
        <mxCell id="NpHVf7ny2RbtNi30LPNa-62" style="edgeStyle=orthogonalEdgeStyle;rounded=0;orthogonalLoop=1;jettySize=auto;html=1;exitX=0.75;exitY=1;exitDx=0;exitDy=0;entryX=0;entryY=0.5;entryDx=0;entryDy=0;endArrow=none;endFill=0;" edge="1" parent="1" source="NpHVf7ny2RbtNi30LPNa-66" target="NpHVf7ny2RbtNi30LPNa-184">
          <mxGeometry relative="1" as="geometry" />
        </mxCell>
        <mxCell id="NpHVf7ny2RbtNi30LPNa-63" value="(0, N)" style="edgeLabel;html=1;align=center;verticalAlign=middle;resizable=0;points=[];" connectable="0" vertex="1" parent="NpHVf7ny2RbtNi30LPNa-62">
          <mxGeometry x="-0.3783" relative="1" as="geometry">
            <mxPoint x="118" as="offset" />
          </mxGeometry>
        </mxCell>
        <mxCell id="NpHVf7ny2RbtNi30LPNa-64" style="edgeStyle=orthogonalEdgeStyle;rounded=0;orthogonalLoop=1;jettySize=auto;html=1;exitX=1;exitY=0.75;exitDx=0;exitDy=0;entryX=1;entryY=0.5;entryDx=0;entryDy=0;jumpStyle=gap;endArrow=none;endFill=0;" edge="1" parent="1" source="NpHVf7ny2RbtNi30LPNa-66" target="NpHVf7ny2RbtNi30LPNa-237">
          <mxGeometry relative="1" as="geometry" />
        </mxCell>
        <mxCell id="NpHVf7ny2RbtNi30LPNa-65" value="(1,N)" style="edgeLabel;html=1;align=center;verticalAlign=middle;resizable=0;points=[];" connectable="0" vertex="1" parent="NpHVf7ny2RbtNi30LPNa-64">
          <mxGeometry x="0.8051" relative="1" as="geometry">
            <mxPoint as="offset" />
          </mxGeometry>
        </mxCell>
        <mxCell id="NpHVf7ny2RbtNi30LPNa-66" value="Chefe" style="whiteSpace=wrap;html=1;align=center;" vertex="1" parent="1">
          <mxGeometry x="2630" y="2300" width="100" height="40" as="geometry" />
        </mxCell>
        <mxCell id="NpHVf7ny2RbtNi30LPNa-67" style="edgeStyle=orthogonalEdgeStyle;rounded=0;orthogonalLoop=1;jettySize=auto;html=1;exitX=1;exitY=0.5;exitDx=0;exitDy=0;endArrow=none;endFill=0;entryX=0.5;entryY=1;entryDx=0;entryDy=0;jumpStyle=arc;" edge="1" parent="1" source="NpHVf7ny2RbtNi30LPNa-70" target="NpHVf7ny2RbtNi30LPNa-91">
          <mxGeometry relative="1" as="geometry">
            <mxPoint x="3080" y="2100" as="targetPoint" />
            <mxPoint x="2850" y="2270" as="sourcePoint" />
            <Array as="points">
              <mxPoint x="3590" y="2260" />
            </Array>
          </mxGeometry>
        </mxCell>
        <mxCell id="NpHVf7ny2RbtNi30LPNa-68" value="(0,1)" style="edgeLabel;html=1;align=center;verticalAlign=middle;resizable=0;points=[];" connectable="0" vertex="1" parent="NpHVf7ny2RbtNi30LPNa-67">
          <mxGeometry x="0.8118" y="-1" relative="1" as="geometry">
            <mxPoint x="-21" y="-71" as="offset" />
          </mxGeometry>
        </mxCell>
        <mxCell id="NpHVf7ny2RbtNi30LPNa-70" value="Ferreiro" style="whiteSpace=wrap;html=1;align=center;" vertex="1" parent="1">
          <mxGeometry x="2750" y="2240" width="100" height="40" as="geometry" />
        </mxCell>
        <mxCell id="NpHVf7ny2RbtNi30LPNa-71" value="&lt;u&gt;id item&lt;/u&gt;" style="ellipse;whiteSpace=wrap;html=1;align=center;" vertex="1" parent="1">
          <mxGeometry x="1830" y="1740" width="60" height="20" as="geometry" />
        </mxCell>
        <mxCell id="NpHVf7ny2RbtNi30LPNa-72" value="nome" style="ellipse;whiteSpace=wrap;html=1;align=center;" vertex="1" parent="1">
          <mxGeometry x="1830" y="1760" width="60" height="20" as="geometry" />
        </mxCell>
        <mxCell id="NpHVf7ny2RbtNi30LPNa-73" value="valor" style="ellipse;whiteSpace=wrap;html=1;align=center;" vertex="1" parent="1">
          <mxGeometry x="1830" y="1780" width="60" height="20" as="geometry" />
        </mxCell>
        <mxCell id="NpHVf7ny2RbtNi30LPNa-74" value="id instancia" style="ellipse;whiteSpace=wrap;html=1;align=center;" vertex="1" parent="1">
          <mxGeometry x="2153" y="1560" width="70" height="30" as="geometry" />
        </mxCell>
        <mxCell id="NpHVf7ny2RbtNi30LPNa-75" value="id item" style="ellipse;whiteSpace=wrap;html=1;align=center;" vertex="1" parent="1">
          <mxGeometry x="2160.5" y="1540" width="55" height="20" as="geometry" />
        </mxCell>
        <mxCell id="NpHVf7ny2RbtNi30LPNa-76" style="edgeStyle=orthogonalEdgeStyle;rounded=0;orthogonalLoop=1;jettySize=auto;html=1;endArrow=none;endFill=0;dashed=1;dashPattern=1 1;exitX=0.937;exitY=0.671;exitDx=0;exitDy=0;exitPerimeter=0;" edge="1" parent="1" source="NpHVf7ny2RbtNi30LPNa-74">
          <mxGeometry relative="1" as="geometry">
            <mxPoint x="2213" y="1579.71" as="sourcePoint" />
            <mxPoint x="2153" y="1579.71" as="targetPoint" />
            <Array as="points">
              <mxPoint x="2188" y="1580" />
            </Array>
          </mxGeometry>
        </mxCell>
        <mxCell id="NpHVf7ny2RbtNi30LPNa-77" value="id area" style="ellipse;whiteSpace=wrap;html=1;align=center;" vertex="1" parent="1">
          <mxGeometry x="2160.5" y="1520" width="55" height="20" as="geometry" />
        </mxCell>
        <mxCell id="NpHVf7ny2RbtNi30LPNa-78" value="" style="endArrow=none;html=1;rounded=0;entryX=0.5;entryY=0;entryDx=0;entryDy=0;" edge="1" parent="1" target="NpHVf7ny2RbtNi30LPNa-70">
          <mxGeometry relative="1" as="geometry">
            <mxPoint x="2590" y="2200" as="sourcePoint" />
            <mxPoint x="2920" y="2210" as="targetPoint" />
            <Array as="points">
              <mxPoint x="2800" y="2200" />
              <mxPoint x="2800" y="2230" />
            </Array>
          </mxGeometry>
        </mxCell>
        <mxCell id="NpHVf7ny2RbtNi30LPNa-79" value="Instância de NPC" style="shape=ext;margin=3;double=1;whiteSpace=wrap;html=1;align=center;" vertex="1" parent="1">
          <mxGeometry x="2297.5" y="1790" width="100" height="40" as="geometry" />
        </mxCell>
        <mxCell id="NpHVf7ny2RbtNi30LPNa-80" value="&lt;br style=&quot;forced-color-adjust: none;&quot;&gt;&lt;span style=&quot;forced-color-adjust: none; color: rgb(0, 0, 0); font-family: Helvetica; font-size: 11px; font-style: normal; font-variant-ligatures: normal; font-variant-caps: normal; font-weight: 400; letter-spacing: normal; orphans: 2; text-align: center; text-indent: 0px; text-transform: none; widows: 2; word-spacing: 0px; -webkit-text-stroke-width: 0px; white-space: nowrap; background-color: rgb(255, 255, 255); text-decoration-thickness: initial; text-decoration-style: initial; text-decoration-color: initial; float: none; display: inline !important;&quot;&gt;(1, N)&lt;/span&gt;&lt;div style=&quot;forced-color-adjust: none;&quot;&gt;&lt;br style=&quot;forced-color-adjust: none; color: rgb(0, 0, 0); font-family: Helvetica; font-size: 11px; font-style: normal; font-variant-ligatures: normal; font-variant-caps: normal; font-weight: 400; letter-spacing: normal; orphans: 2; text-align: center; text-indent: 0px; text-transform: none; widows: 2; word-spacing: 0px; -webkit-text-stroke-width: 0px; white-space: nowrap; background-color: rgb(255, 255, 255); text-decoration-thickness: initial; text-decoration-style: initial; text-decoration-color: initial;&quot;&gt;&lt;br&gt;&lt;br&gt;&lt;/div&gt;" style="text;whiteSpace=wrap;html=1;" vertex="1" parent="1">
          <mxGeometry x="2710" y="1640" width="30" height="40" as="geometry" />
        </mxCell>
        <mxCell id="NpHVf7ny2RbtNi30LPNa-81" value="&lt;br&gt;&lt;span style=&quot;color: rgb(0, 0, 0); font-family: Helvetica; font-size: 11px; font-style: normal; font-variant-ligatures: normal; font-variant-caps: normal; font-weight: 400; letter-spacing: normal; orphans: 2; text-align: center; text-indent: 0px; text-transform: none; widows: 2; word-spacing: 0px; -webkit-text-stroke-width: 0px; white-space: nowrap; background-color: rgb(255, 255, 255); text-decoration-thickness: initial; text-decoration-style: initial; text-decoration-color: initial; display: inline !important; float: none;&quot;&gt;(1, 1)&lt;/span&gt;&lt;div&gt;&lt;br/&gt;&lt;/div&gt;" style="edgeStyle=orthogonalEdgeStyle;rounded=0;orthogonalLoop=1;jettySize=auto;html=1;entryX=0;entryY=0.25;entryDx=0;entryDy=0;endArrow=none;endFill=0;exitX=0.5;exitY=1;exitDx=0;exitDy=0;" edge="1" parent="1">
          <mxGeometry x="-0.4546" y="-1" relative="1" as="geometry">
            <mxPoint x="2347.5" y="2091.5" as="sourcePoint" />
            <mxPoint x="2540" y="2118.5" as="targetPoint" />
            <Array as="points">
              <mxPoint x="2348" y="2119" />
              <mxPoint x="2490" y="2119" />
            </Array>
            <mxPoint as="offset" />
          </mxGeometry>
        </mxCell>
        <mxCell id="NpHVf7ny2RbtNi30LPNa-82" value="contém" style="shape=rhombus;perimeter=rhombusPerimeter;whiteSpace=wrap;html=1;align=center;" vertex="1" parent="1">
          <mxGeometry x="2310" y="2043" width="80" height="50" as="geometry" />
        </mxCell>
        <mxCell id="NpHVf7ny2RbtNi30LPNa-83" value="" style="shape=link;html=1;rounded=0;entryX=0.5;entryY=1;entryDx=0;entryDy=0;" edge="1" parent="1" source="NpHVf7ny2RbtNi30LPNa-82" target="NpHVf7ny2RbtNi30LPNa-79">
          <mxGeometry relative="1" as="geometry">
            <mxPoint x="2270" y="1640" as="sourcePoint" />
            <mxPoint x="2380" y="1640" as="targetPoint" />
          </mxGeometry>
        </mxCell>
        <mxCell id="NpHVf7ny2RbtNi30LPNa-84" value="(1, N)" style="edgeLabel;html=1;align=center;verticalAlign=middle;resizable=0;points=[];" connectable="0" vertex="1" parent="NpHVf7ny2RbtNi30LPNa-83">
          <mxGeometry x="0.719" relative="1" as="geometry">
            <mxPoint y="116" as="offset" />
          </mxGeometry>
        </mxCell>
        <mxCell id="NpHVf7ny2RbtNi30LPNa-85" value="nome" style="ellipse;whiteSpace=wrap;html=1;align=center;" vertex="1" parent="1">
          <mxGeometry x="2560" y="1850" width="60" height="20" as="geometry" />
        </mxCell>
        <mxCell id="NpHVf7ny2RbtNi30LPNa-86" value="(1, 1)" style="edgeLabel;html=1;align=center;verticalAlign=middle;resizable=0;points=[];" connectable="0" vertex="1" parent="1">
          <mxGeometry x="2729.9966666666664" y="2050" as="geometry">
            <mxPoint x="129" y="-286" as="offset" />
          </mxGeometry>
        </mxCell>
        <mxCell id="NpHVf7ny2RbtNi30LPNa-87" value="" style="endArrow=none;html=1;rounded=0;entryX=0.5;entryY=1;entryDx=0;entryDy=0;exitX=0.5;exitY=0;exitDx=0;exitDy=0;" edge="1" parent="1" source="NpHVf7ny2RbtNi30LPNa-17" target="NpHVf7ny2RbtNi30LPNa-85">
          <mxGeometry relative="1" as="geometry">
            <mxPoint x="2990" y="1639.6599999999999" as="sourcePoint" />
            <mxPoint x="3110" y="1640" as="targetPoint" />
          </mxGeometry>
        </mxCell>
        <mxCell id="NpHVf7ny2RbtNi30LPNa-88" style="edgeStyle=orthogonalEdgeStyle;rounded=0;orthogonalLoop=1;jettySize=auto;html=1;exitX=0;exitY=0.5;exitDx=0;exitDy=0;endArrow=none;endFill=0;startArrow=none;startFill=0;" edge="1" parent="1">
          <mxGeometry relative="1" as="geometry">
            <mxPoint x="2590" y="2032" as="sourcePoint" />
            <mxPoint x="2590" y="2110" as="targetPoint" />
          </mxGeometry>
        </mxCell>
        <mxCell id="NpHVf7ny2RbtNi30LPNa-89" value="" style="endArrow=none;html=1;rounded=0;endFill=0;" edge="1" parent="1" source="NpHVf7ny2RbtNi30LPNa-316">
          <mxGeometry width="50" height="50" relative="1" as="geometry">
            <mxPoint x="3110" y="2030" as="sourcePoint" />
            <mxPoint x="2590" y="2030" as="targetPoint" />
            <Array as="points" />
          </mxGeometry>
        </mxCell>
        <mxCell id="NpHVf7ny2RbtNi30LPNa-90" style="edgeStyle=orthogonalEdgeStyle;rounded=0;orthogonalLoop=1;jettySize=auto;html=1;exitX=0.5;exitY=1;exitDx=0;exitDy=0;endArrow=none;endFill=0;" edge="1" parent="1" source="NpHVf7ny2RbtNi30LPNa-121">
          <mxGeometry relative="1" as="geometry">
            <mxPoint x="3520" y="2310" as="targetPoint" />
            <Array as="points">
              <mxPoint x="3560" y="2310" />
              <mxPoint x="3530" y="2310" />
            </Array>
          </mxGeometry>
        </mxCell>
        <mxCell id="NpHVf7ny2RbtNi30LPNa-91" value="abriga" style="shape=rhombus;perimeter=rhombusPerimeter;whiteSpace=wrap;html=1;align=center;" vertex="1" parent="1">
          <mxGeometry x="3530" y="1980.5" width="120" height="80" as="geometry" />
        </mxCell>
        <mxCell id="NpHVf7ny2RbtNi30LPNa-92" value="força" style="ellipse;whiteSpace=wrap;html=1;align=center;" vertex="1" parent="1">
          <mxGeometry x="3320" y="1967.5" width="60" height="20" as="geometry" />
        </mxCell>
        <mxCell id="NpHVf7ny2RbtNi30LPNa-93" value="destreza" style="ellipse;whiteSpace=wrap;html=1;align=center;" vertex="1" parent="1">
          <mxGeometry x="3320" y="1949" width="60" height="20" as="geometry" />
        </mxCell>
        <mxCell id="NpHVf7ny2RbtNi30LPNa-94" value="fé" style="ellipse;whiteSpace=wrap;html=1;align=center;" vertex="1" parent="1">
          <mxGeometry x="3320" y="1932" width="60" height="20" as="geometry" />
        </mxCell>
        <mxCell id="NpHVf7ny2RbtNi30LPNa-95" value="int" style="ellipse;whiteSpace=wrap;html=1;align=center;" vertex="1" parent="1">
          <mxGeometry x="3320" y="1912" width="60" height="20" as="geometry" />
        </mxCell>
        <mxCell id="NpHVf7ny2RbtNi30LPNa-96" value="HP" style="ellipse;whiteSpace=wrap;html=1;align=center;" vertex="1" parent="1">
          <mxGeometry x="2560" y="1870" width="60" height="20" as="geometry" />
        </mxCell>
        <mxCell id="NpHVf7ny2RbtNi30LPNa-97" value="resistência" style="ellipse;whiteSpace=wrap;html=1;align=center;" vertex="1" parent="1">
          <mxGeometry x="2440" y="2180" width="70" height="20" as="geometry" />
        </mxCell>
        <mxCell id="NpHVf7ny2RbtNi30LPNa-98" value="fraqueza" style="ellipse;whiteSpace=wrap;html=1;align=center;" vertex="1" parent="1">
          <mxGeometry x="2440" y="2200" width="70" height="20" as="geometry" />
        </mxCell>
        <mxCell id="NpHVf7ny2RbtNi30LPNa-99" value="&lt;u&gt;id personagem&lt;/u&gt;" style="ellipse;whiteSpace=wrap;html=1;align=center;" vertex="1" parent="1">
          <mxGeometry x="2545" y="1890" width="90" height="30" as="geometry" />
        </mxCell>
        <mxCell id="NpHVf7ny2RbtNi30LPNa-100" value="está hostil" style="ellipse;whiteSpace=wrap;html=1;align=center;" vertex="1" parent="1">
          <mxGeometry x="2440" y="2160" width="70" height="20" as="geometry" />
        </mxCell>
        <mxCell id="NpHVf7ny2RbtNi30LPNa-101" style="edgeStyle=orthogonalEdgeStyle;rounded=0;orthogonalLoop=1;jettySize=auto;html=1;exitX=0.5;exitY=1;exitDx=0;exitDy=0;endArrow=none;endFill=0;startArrow=none;startFill=0;entryX=0.5;entryY=0;entryDx=0;entryDy=0;" edge="1" parent="1" target="NpHVf7ny2RbtNi30LPNa-66">
          <mxGeometry relative="1" as="geometry">
            <mxPoint x="2590" y="2220" as="sourcePoint" />
            <mxPoint x="2670" y="2360" as="targetPoint" />
            <Array as="points">
              <mxPoint x="2590" y="2200" />
              <mxPoint x="2680" y="2200" />
            </Array>
          </mxGeometry>
        </mxCell>
        <mxCell id="NpHVf7ny2RbtNi30LPNa-102" value="peso máximo" style="ellipse;whiteSpace=wrap;html=1;align=center;dashed=1;" vertex="1" parent="1">
          <mxGeometry x="3240" y="2004" width="60" height="30" as="geometry" />
        </mxCell>
        <mxCell id="NpHVf7ny2RbtNi30LPNa-103" value="stamina" style="ellipse;whiteSpace=wrap;html=1;align=center;dashed=1;" vertex="1" parent="1">
          <mxGeometry x="3240" y="2030" width="60" height="30" as="geometry" />
        </mxCell>
        <mxCell id="NpHVf7ny2RbtNi30LPNa-104" value="vigor" style="ellipse;whiteSpace=wrap;html=1;align=center;" vertex="1" parent="1">
          <mxGeometry x="3320" y="1892" width="60" height="20" as="geometry" />
        </mxCell>
        <mxCell id="NpHVf7ny2RbtNi30LPNa-105" value="vitalidade" style="ellipse;whiteSpace=wrap;html=1;align=center;" vertex="1" parent="1">
          <mxGeometry x="3320" y="1872" width="60" height="20" as="geometry" />
        </mxCell>
        <mxCell id="NpHVf7ny2RbtNi30LPNa-106" value="" style="edgeStyle=orthogonalEdgeStyle;rounded=0;orthogonalLoop=1;jettySize=auto;html=1;endArrow=none;endFill=0;" edge="1" parent="1" source="NpHVf7ny2RbtNi30LPNa-4" target="NpHVf7ny2RbtNi30LPNa-107">
          <mxGeometry relative="1" as="geometry">
            <mxPoint x="2188" y="1980" as="targetPoint" />
            <mxPoint x="2188" y="1650" as="sourcePoint" />
          </mxGeometry>
        </mxCell>
        <mxCell id="NpHVf7ny2RbtNi30LPNa-107" value="está em" style="shape=rhombus;perimeter=rhombusPerimeter;whiteSpace=wrap;html=1;align=center;" vertex="1" parent="1">
          <mxGeometry x="2143" y="2480" width="90" height="60" as="geometry" />
        </mxCell>
        <mxCell id="NpHVf7ny2RbtNi30LPNa-115" value="(0,N)" style="resizable=0;html=1;whiteSpace=wrap;align=right;verticalAlign=bottom;" connectable="0" vertex="1" parent="1">
          <mxGeometry x="2290.002857142857" y="2520" as="geometry">
            <mxPoint x="5" y="-11" as="offset" />
          </mxGeometry>
        </mxCell>
        <mxCell id="NpHVf7ny2RbtNi30LPNa-116" value="(0,1)" style="edgeLabel;html=1;align=center;verticalAlign=middle;resizable=0;points=[];" connectable="0" vertex="1" parent="1">
          <mxGeometry x="3680" y="2017.0014285714287" as="geometry" />
        </mxCell>
        <mxCell id="NpHVf7ny2RbtNi30LPNa-121" value="abriga" style="shape=rhombus;perimeter=rhombusPerimeter;whiteSpace=wrap;html=1;align=center;" vertex="1" parent="1">
          <mxGeometry x="3650" y="1910" width="120" height="80" as="geometry" />
        </mxCell>
        <mxCell id="NpHVf7ny2RbtNi30LPNa-122" value="&lt;span style=&quot;font-size: 11px; background-color: rgb(255, 255, 255);&quot;&gt;(1,1)&lt;/span&gt;" style="text;html=1;align=center;verticalAlign=middle;resizable=0;points=[];autosize=1;strokeColor=none;fillColor=none;" vertex="1" parent="1">
          <mxGeometry x="3650" y="1863" width="50" height="30" as="geometry" />
        </mxCell>
        <mxCell id="NpHVf7ny2RbtNi30LPNa-123" value="dialoga com" style="shape=rhombus;perimeter=rhombusPerimeter;whiteSpace=wrap;html=1;align=center;" vertex="1" parent="1">
          <mxGeometry x="2760" y="2100" width="100" height="60" as="geometry" />
        </mxCell>
        <mxCell id="NpHVf7ny2RbtNi30LPNa-124" style="edgeStyle=orthogonalEdgeStyle;rounded=0;orthogonalLoop=1;jettySize=auto;html=1;endArrow=none;endFill=0;exitX=1;exitY=0.5;exitDx=0;exitDy=0;" edge="1" parent="1" source="NpHVf7ny2RbtNi30LPNa-123" target="NpHVf7ny2RbtNi30LPNa-56">
          <mxGeometry relative="1" as="geometry">
            <mxPoint x="2870" y="2130" as="sourcePoint" />
            <mxPoint x="3130" y="2050" as="targetPoint" />
            <Array as="points">
              <mxPoint x="3139" y="2130" />
            </Array>
          </mxGeometry>
        </mxCell>
        <mxCell id="NpHVf7ny2RbtNi30LPNa-125" value="(0,N)" style="edgeLabel;html=1;align=center;verticalAlign=middle;resizable=0;points=[];" connectable="0" vertex="1" parent="NpHVf7ny2RbtNi30LPNa-124">
          <mxGeometry x="-0.7645" relative="1" as="geometry">
            <mxPoint x="15" y="2" as="offset" />
          </mxGeometry>
        </mxCell>
        <mxCell id="NpHVf7ny2RbtNi30LPNa-126" style="edgeStyle=orthogonalEdgeStyle;rounded=0;orthogonalLoop=1;jettySize=auto;html=1;entryX=0.75;entryY=0;entryDx=0;entryDy=0;jumpStyle=arc;endArrow=none;endFill=0;" edge="1" parent="1">
          <mxGeometry relative="1" as="geometry">
            <Array as="points">
              <mxPoint x="2830" y="1970" />
              <mxPoint x="2830" y="2001" />
              <mxPoint x="2625" y="2001" />
            </Array>
            <mxPoint x="2830" y="1970" as="sourcePoint" />
            <mxPoint x="2625" y="2111" as="targetPoint" />
          </mxGeometry>
        </mxCell>
        <mxCell id="NpHVf7ny2RbtNi30LPNa-127" style="edgeStyle=orthogonalEdgeStyle;rounded=0;orthogonalLoop=1;jettySize=auto;html=1;exitX=0.5;exitY=0;exitDx=0;exitDy=0;entryX=0.5;entryY=1;entryDx=0;entryDy=0;endArrow=none;endFill=0;" edge="1" parent="1" source="NpHVf7ny2RbtNi30LPNa-128">
          <mxGeometry relative="1" as="geometry">
            <mxPoint x="2824.9400000000005" y="1830" as="targetPoint" />
          </mxGeometry>
        </mxCell>
        <mxCell id="NpHVf7ny2RbtNi30LPNa-128" value="Diálogo" style="whiteSpace=wrap;html=1;align=center;" vertex="1" parent="1">
          <mxGeometry x="2774.9400000000005" y="1840" width="100" height="40" as="geometry" />
        </mxCell>
        <mxCell id="NpHVf7ny2RbtNi30LPNa-129" value="texto" style="ellipse;whiteSpace=wrap;html=1;align=center;" vertex="1" parent="1">
          <mxGeometry x="2794.9400000000005" y="1790" width="60" height="20" as="geometry" />
        </mxCell>
        <mxCell id="NpHVf7ny2RbtNi30LPNa-130" value="(0, N)" style="edgeLabel;html=1;align=center;verticalAlign=middle;resizable=0;points=[];" connectable="0" vertex="1" parent="1">
          <mxGeometry x="2199.99782981704" y="1880.0022996638454" as="geometry">
            <mxPoint x="-12" y="-72" as="offset" />
          </mxGeometry>
        </mxCell>
        <mxCell id="NpHVf7ny2RbtNi30LPNa-133" value="mp" style="ellipse;whiteSpace=wrap;html=1;align=center;dashed=1;" vertex="1" parent="1">
          <mxGeometry x="3240" y="2060" width="60" height="20" as="geometry" />
        </mxCell>
        <mxCell id="NpHVf7ny2RbtNi30LPNa-134" value="nível_atual" style="ellipse;whiteSpace=wrap;html=1;align=center;" vertex="1" parent="1">
          <mxGeometry x="3240" y="2080" width="60" height="20" as="geometry" />
        </mxCell>
        <mxCell id="NpHVf7ny2RbtNi30LPNa-135" style="edgeStyle=orthogonalEdgeStyle;rounded=0;orthogonalLoop=1;jettySize=auto;html=1;endArrow=none;endFill=0;" edge="1" parent="1" source="NpHVf7ny2RbtNi30LPNa-138">
          <mxGeometry relative="1" as="geometry">
            <mxPoint x="1765" y="1950" as="targetPoint" />
          </mxGeometry>
        </mxCell>
        <mxCell id="NpHVf7ny2RbtNi30LPNa-136" style="edgeStyle=orthogonalEdgeStyle;rounded=0;orthogonalLoop=1;jettySize=auto;html=1;exitX=1;exitY=0.75;exitDx=0;exitDy=0;endArrow=none;endFill=0;entryX=0.5;entryY=0;entryDx=0;entryDy=0;" edge="1" parent="1" source="NpHVf7ny2RbtNi30LPNa-138" target="NpHVf7ny2RbtNi30LPNa-213">
          <mxGeometry relative="1" as="geometry">
            <mxPoint x="1840" y="2160" as="targetPoint" />
          </mxGeometry>
        </mxCell>
        <mxCell id="NpHVf7ny2RbtNi30LPNa-137" value="(1,1)" style="edgeLabel;html=1;align=center;verticalAlign=middle;resizable=0;points=[];" connectable="0" vertex="1" parent="NpHVf7ny2RbtNi30LPNa-136">
          <mxGeometry x="0.1699" y="-1" relative="1" as="geometry">
            <mxPoint as="offset" />
          </mxGeometry>
        </mxCell>
        <mxCell id="NpHVf7ny2RbtNi30LPNa-138" value="Arma" style="whiteSpace=wrap;html=1;align=center;" vertex="1" parent="1">
          <mxGeometry x="1715" y="2015" width="100" height="40" as="geometry" />
        </mxCell>
        <mxCell id="NpHVf7ny2RbtNi30LPNa-139" style="edgeStyle=orthogonalEdgeStyle;rounded=0;orthogonalLoop=1;jettySize=auto;html=1;exitX=0.5;exitY=0;exitDx=0;exitDy=0;endArrow=none;endFill=0;" edge="1" parent="1" source="NpHVf7ny2RbtNi30LPNa-141">
          <mxGeometry relative="1" as="geometry">
            <mxPoint x="1780" y="1950" as="targetPoint" />
            <Array as="points">
              <mxPoint x="1510" y="2005" />
              <mxPoint x="1510" y="1950" />
            </Array>
          </mxGeometry>
        </mxCell>
        <mxCell id="NpHVf7ny2RbtNi30LPNa-140" style="edgeStyle=orthogonalEdgeStyle;rounded=0;orthogonalLoop=1;jettySize=auto;html=1;exitX=0.5;exitY=1;exitDx=0;exitDy=0;endArrow=none;endFill=0;entryX=0.5;entryY=0;entryDx=0;entryDy=0;" edge="1" parent="1" source="NpHVf7ny2RbtNi30LPNa-141" target="NpHVf7ny2RbtNi30LPNa-142">
          <mxGeometry relative="1" as="geometry">
            <mxPoint x="1500" y="2100" as="targetPoint" />
          </mxGeometry>
        </mxCell>
        <mxCell id="NpHVf7ny2RbtNi30LPNa-141" value="Armadura" style="whiteSpace=wrap;html=1;align=center;" vertex="1" parent="1">
          <mxGeometry x="1470" y="2005" width="85" height="40" as="geometry" />
        </mxCell>
        <mxCell id="NpHVf7ny2RbtNi30LPNa-142" value="resistência" style="ellipse;whiteSpace=wrap;html=1;align=center;" vertex="1" parent="1">
          <mxGeometry x="1478.75" y="2050" width="67.5" height="20" as="geometry" />
        </mxCell>
        <mxCell id="NpHVf7ny2RbtNi30LPNa-143" value="dano" style="ellipse;whiteSpace=wrap;html=1;align=center;" vertex="1" parent="1">
          <mxGeometry x="1655" y="2005" width="60" height="20" as="geometry" />
        </mxCell>
        <mxCell id="NpHVf7ny2RbtNi30LPNa-144" value="crítico" style="ellipse;whiteSpace=wrap;html=1;align=center;" vertex="1" parent="1">
          <mxGeometry x="1655" y="2025" width="60" height="20" as="geometry" />
        </mxCell>
        <mxCell id="NpHVf7ny2RbtNi30LPNa-145" value="habilidade" style="ellipse;whiteSpace=wrap;html=1;align=center;" vertex="1" parent="1">
          <mxGeometry x="1655" y="2045" width="60" height="20" as="geometry" />
        </mxCell>
        <mxCell id="NpHVf7ny2RbtNi30LPNa-146" value="raridade" style="ellipse;whiteSpace=wrap;html=1;align=center;" vertex="1" parent="1">
          <mxGeometry x="1830" y="1720" width="60" height="20" as="geometry" />
        </mxCell>
        <mxCell id="NpHVf7ny2RbtNi30LPNa-147" style="edgeStyle=orthogonalEdgeStyle;rounded=0;orthogonalLoop=1;jettySize=auto;html=1;endArrow=none;endFill=0;exitX=0.5;exitY=0;exitDx=0;exitDy=0;" edge="1" parent="1" source="NpHVf7ny2RbtNi30LPNa-149">
          <mxGeometry relative="1" as="geometry">
            <mxPoint x="1760" y="1950" as="targetPoint" />
            <Array as="points">
              <mxPoint x="2010" y="1950" />
            </Array>
          </mxGeometry>
        </mxCell>
        <mxCell id="NpHVf7ny2RbtNi30LPNa-148" style="edgeStyle=orthogonalEdgeStyle;rounded=0;orthogonalLoop=1;jettySize=auto;html=1;exitX=0.5;exitY=1;exitDx=0;exitDy=0;entryX=0.5;entryY=0;entryDx=0;entryDy=0;endArrow=none;endFill=0;" edge="1" parent="1" source="NpHVf7ny2RbtNi30LPNa-149" target="NpHVf7ny2RbtNi30LPNa-150">
          <mxGeometry relative="1" as="geometry">
            <mxPoint x="1920" y="2063" as="targetPoint" />
          </mxGeometry>
        </mxCell>
        <mxCell id="NpHVf7ny2RbtNi30LPNa-149" value="Escudo" style="whiteSpace=wrap;html=1;align=center;" vertex="1" parent="1">
          <mxGeometry x="1950" y="2015" width="100" height="40" as="geometry" />
        </mxCell>
        <mxCell id="NpHVf7ny2RbtNi30LPNa-150" value="defesa" style="ellipse;whiteSpace=wrap;html=1;align=center;" vertex="1" parent="1">
          <mxGeometry x="1965" y="2058" width="60" height="20" as="geometry" />
        </mxCell>
        <mxCell id="NpHVf7ny2RbtNi30LPNa-151" style="edgeStyle=orthogonalEdgeStyle;rounded=0;orthogonalLoop=1;jettySize=auto;html=1;exitX=0.5;exitY=0;exitDx=0;exitDy=0;endArrow=none;endFill=0;" edge="1" parent="1" source="NpHVf7ny2RbtNi30LPNa-155">
          <mxGeometry relative="1" as="geometry">
            <mxPoint x="1765" y="1770" as="targetPoint" />
            <Array as="points">
              <mxPoint x="2063" y="1810" />
              <mxPoint x="1765" y="1810" />
            </Array>
          </mxGeometry>
        </mxCell>
        <mxCell id="NpHVf7ny2RbtNi30LPNa-152" style="edgeStyle=orthogonalEdgeStyle;rounded=0;orthogonalLoop=1;jettySize=auto;html=1;exitX=0.5;exitY=1;exitDx=0;exitDy=0;endArrow=none;endFill=0;" edge="1" parent="1" source="NpHVf7ny2RbtNi30LPNa-254">
          <mxGeometry relative="1" as="geometry">
            <mxPoint x="2062.242424242424" y="1900" as="targetPoint" />
          </mxGeometry>
        </mxCell>
        <mxCell id="NpHVf7ny2RbtNi30LPNa-153" style="edgeStyle=orthogonalEdgeStyle;rounded=0;orthogonalLoop=1;jettySize=auto;html=1;exitX=1;exitY=0.5;exitDx=0;exitDy=0;entryX=0;entryY=0.5;entryDx=0;entryDy=0;jumpStyle=arc;endArrow=none;endFill=0;" edge="1" parent="1" source="NpHVf7ny2RbtNi30LPNa-155" target="NpHVf7ny2RbtNi30LPNa-156">
          <mxGeometry relative="1" as="geometry">
            <Array as="points">
              <mxPoint x="2140" y="1873" />
              <mxPoint x="2140" y="1950" />
            </Array>
          </mxGeometry>
        </mxCell>
        <mxCell id="NpHVf7ny2RbtNi30LPNa-154" style="edgeStyle=orthogonalEdgeStyle;rounded=0;orthogonalLoop=1;jettySize=auto;html=1;exitX=0.5;exitY=1;exitDx=0;exitDy=0;entryX=0.5;entryY=0;entryDx=0;entryDy=0;endArrow=none;endFill=0;" edge="1" parent="1" source="NpHVf7ny2RbtNi30LPNa-155" target="NpHVf7ny2RbtNi30LPNa-253">
          <mxGeometry relative="1" as="geometry" />
        </mxCell>
        <mxCell id="NpHVf7ny2RbtNi30LPNa-155" value="Consumível" style="whiteSpace=wrap;html=1;align=center;" vertex="1" parent="1">
          <mxGeometry x="2020" y="1825" width="85" height="40" as="geometry" />
        </mxCell>
        <mxCell id="NpHVf7ny2RbtNi30LPNa-156" value="é consumido por" style="shape=rhombus;perimeter=rhombusPerimeter;whiteSpace=wrap;html=1;align=center;" vertex="1" parent="1">
          <mxGeometry x="2200" y="1922.5" width="120" height="55" as="geometry" />
        </mxCell>
        <mxCell id="NpHVf7ny2RbtNi30LPNa-157" value="(1, N)" style="edgeLabel;html=1;align=center;verticalAlign=middle;resizable=0;points=[];" connectable="0" vertex="1" parent="1">
          <mxGeometry x="2180.003506355072" y="1870.00376851578" as="geometry">
            <mxPoint x="-50" y="7" as="offset" />
          </mxGeometry>
        </mxCell>
        <mxCell id="NpHVf7ny2RbtNi30LPNa-158" style="edgeStyle=orthogonalEdgeStyle;rounded=0;orthogonalLoop=1;jettySize=auto;html=1;exitX=1;exitY=0.5;exitDx=0;exitDy=0;endArrow=none;endFill=0;jumpStyle=arc;jumpSize=12;" edge="1" parent="1" source="NpHVf7ny2RbtNi30LPNa-160">
          <mxGeometry relative="1" as="geometry">
            <mxPoint x="2540" y="1950" as="targetPoint" />
          </mxGeometry>
        </mxCell>
        <mxCell id="NpHVf7ny2RbtNi30LPNa-159" value="" style="edgeStyle=orthogonalEdgeStyle;rounded=0;orthogonalLoop=1;jettySize=auto;html=1;exitX=1;exitY=0.5;exitDx=0;exitDy=0;endArrow=none;endFill=0;jumpStyle=arc;jumpSize=12;" edge="1" parent="1" source="NpHVf7ny2RbtNi30LPNa-156" target="NpHVf7ny2RbtNi30LPNa-160">
          <mxGeometry relative="1" as="geometry">
            <mxPoint x="2303" y="1950" as="sourcePoint" />
            <mxPoint x="2540" y="1950" as="targetPoint" />
          </mxGeometry>
        </mxCell>
        <mxCell id="NpHVf7ny2RbtNi30LPNa-160" value="&lt;span style=&quot;color: rgb(0, 0, 0); font-family: Helvetica; font-size: 11px; font-style: normal; font-variant-ligatures: normal; font-variant-caps: normal; font-weight: 400; letter-spacing: normal; orphans: 2; text-align: center; text-indent: 0px; text-transform: none; widows: 2; word-spacing: 0px; -webkit-text-stroke-width: 0px; white-space: nowrap; background-color: rgb(255, 255, 255); text-decoration-thickness: initial; text-decoration-style: initial; text-decoration-color: initial; display: inline !important; float: none;&quot;&gt;(1, 1)&lt;/span&gt;" style="text;whiteSpace=wrap;html=1;" vertex="1" parent="1">
          <mxGeometry x="2480" y="1930" width="30" height="40" as="geometry" />
        </mxCell>
        <mxCell id="NpHVf7ny2RbtNi30LPNa-162" value="duração" style="ellipse;whiteSpace=wrap;html=1;align=center;" vertex="1" parent="1">
          <mxGeometry x="2032.5" y="1908" width="60" height="20" as="geometry" />
        </mxCell>
        <mxCell id="NpHVf7ny2RbtNi30LPNa-163" value="lembrança" style="ellipse;whiteSpace=wrap;html=1;align=center;" vertex="1" parent="1">
          <mxGeometry x="2619.94" y="2350" width="70" height="20" as="geometry" />
        </mxCell>
        <mxCell id="NpHVf7ny2RbtNi30LPNa-164" style="edgeStyle=orthogonalEdgeStyle;rounded=0;orthogonalLoop=1;jettySize=auto;html=1;exitX=0.5;exitY=1;exitDx=0;exitDy=0;entryX=0.5;entryY=0;entryDx=0;entryDy=0;endArrow=none;endFill=0;" edge="1" parent="1" source="NpHVf7ny2RbtNi30LPNa-59">
          <mxGeometry relative="1" as="geometry">
            <mxPoint x="2519.94" y="2350" as="targetPoint" />
          </mxGeometry>
        </mxCell>
        <mxCell id="NpHVf7ny2RbtNi30LPNa-165" value="dano base" style="ellipse;whiteSpace=wrap;html=1;align=center;" vertex="1" parent="1">
          <mxGeometry x="2490" y="2350" width="60" height="20" as="geometry" />
        </mxCell>
        <mxCell id="NpHVf7ny2RbtNi30LPNa-166" value="dano base" style="ellipse;whiteSpace=wrap;html=1;align=center;" vertex="1" parent="1">
          <mxGeometry x="2624.94" y="2370" width="60" height="20" as="geometry" />
        </mxCell>
        <mxCell id="NpHVf7ny2RbtNi30LPNa-167" value="drop runas" style="ellipse;whiteSpace=wrap;html=1;align=center;" vertex="1" parent="1">
          <mxGeometry x="2440" y="2220" width="70" height="20" as="geometry" />
        </mxCell>
        <mxCell id="NpHVf7ny2RbtNi30LPNa-168" value="fala" style="shape=rhombus;perimeter=rhombusPerimeter;whiteSpace=wrap;html=1;align=center;" vertex="1" parent="1">
          <mxGeometry x="2775" y="1909" width="110" height="60" as="geometry" />
        </mxCell>
        <mxCell id="NpHVf7ny2RbtNi30LPNa-169" value="(1,N)" style="edgeLabel;html=1;align=center;verticalAlign=middle;resizable=0;points=[];" connectable="0" vertex="1" parent="1">
          <mxGeometry x="2840.0011152083134" y="1981.9961269255955" as="geometry">
            <mxPoint x="6" y="5" as="offset" />
          </mxGeometry>
        </mxCell>
        <mxCell id="NpHVf7ny2RbtNi30LPNa-170" value="(0,N)" style="edgeLabel;html=1;align=center;verticalAlign=middle;resizable=0;points=[];" connectable="0" vertex="1" parent="1">
          <mxGeometry x="2820.0011152083134" y="2071.9961269255955" as="geometry">
            <mxPoint x="27" y="-174" as="offset" />
          </mxGeometry>
        </mxCell>
        <mxCell id="NpHVf7ny2RbtNi30LPNa-171" value="" style="shape=link;html=1;rounded=0;entryX=0.552;entryY=1.039;entryDx=0;entryDy=0;exitX=0.5;exitY=0;exitDx=0;exitDy=0;entryPerimeter=0;" edge="1" parent="1" source="NpHVf7ny2RbtNi30LPNa-168" target="NpHVf7ny2RbtNi30LPNa-128">
          <mxGeometry relative="1" as="geometry">
            <mxPoint x="2825" y="1965" as="sourcePoint" />
            <mxPoint x="2824.6399999999994" y="1880" as="targetPoint" />
          </mxGeometry>
        </mxCell>
        <mxCell id="NpHVf7ny2RbtNi30LPNa-172" value="é único" style="ellipse;whiteSpace=wrap;html=1;align=center;" vertex="1" parent="1">
          <mxGeometry x="2794.9400000000005" y="1770" width="60" height="20" as="geometry" />
        </mxCell>
        <mxCell id="NpHVf7ny2RbtNi30LPNa-173" value="" style="edgeStyle=orthogonalEdgeStyle;rounded=0;orthogonalLoop=1;jettySize=auto;html=1;exitX=0.5;exitY=1;exitDx=0;exitDy=0;endArrow=none;endFill=0;" edge="1" parent="1" source="NpHVf7ny2RbtNi30LPNa-56" target="NpHVf7ny2RbtNi30LPNa-175">
          <mxGeometry relative="1" as="geometry">
            <mxPoint x="3060" y="2080" as="sourcePoint" />
            <mxPoint x="2825" y="2240" as="targetPoint" />
            <Array as="points">
              <mxPoint x="3160" y="2210" />
            </Array>
          </mxGeometry>
        </mxCell>
        <mxCell id="NpHVf7ny2RbtNi30LPNa-174" value="(0,N)" style="edgeLabel;html=1;align=center;verticalAlign=middle;resizable=0;points=[];" connectable="0" vertex="1" parent="NpHVf7ny2RbtNi30LPNa-173">
          <mxGeometry x="0.8734" y="1" relative="1" as="geometry">
            <mxPoint x="10" y="-1" as="offset" />
          </mxGeometry>
        </mxCell>
        <mxCell id="NpHVf7ny2RbtNi30LPNa-175" value="melhora equipamento" style="shape=rhombus;perimeter=rhombusPerimeter;whiteSpace=wrap;html=1;align=center;" vertex="1" parent="1">
          <mxGeometry x="2890" y="2170" width="110" height="80" as="geometry" />
        </mxCell>
        <mxCell id="NpHVf7ny2RbtNi30LPNa-176" style="edgeStyle=orthogonalEdgeStyle;rounded=0;orthogonalLoop=1;jettySize=auto;html=1;exitX=0.5;exitY=0;exitDx=0;exitDy=0;endArrow=none;endFill=0;" edge="1" parent="1" source="NpHVf7ny2RbtNi30LPNa-178">
          <mxGeometry relative="1" as="geometry">
            <mxPoint x="1765.166666666667" y="1800" as="targetPoint" />
          </mxGeometry>
        </mxCell>
        <mxCell id="NpHVf7ny2RbtNi30LPNa-177" style="edgeStyle=orthogonalEdgeStyle;rounded=0;orthogonalLoop=1;jettySize=auto;html=1;exitX=1;exitY=0.25;exitDx=0;exitDy=0;entryX=0;entryY=0.5;entryDx=0;entryDy=0;endArrow=none;endFill=0;" edge="1" parent="1" source="NpHVf7ny2RbtNi30LPNa-178" target="NpHVf7ny2RbtNi30LPNa-180">
          <mxGeometry relative="1" as="geometry">
            <Array as="points">
              <mxPoint x="1815" y="1865" />
            </Array>
          </mxGeometry>
        </mxCell>
        <mxCell id="NpHVf7ny2RbtNi30LPNa-178" value="Equipamento" style="whiteSpace=wrap;html=1;align=center;" vertex="1" parent="1">
          <mxGeometry x="1715" y="1850" width="100" height="40" as="geometry" />
        </mxCell>
        <mxCell id="NpHVf7ny2RbtNi30LPNa-179" value="melhoria" style="ellipse;whiteSpace=wrap;html=1;align=center;" vertex="1" parent="1">
          <mxGeometry x="1830" y="1835" width="60" height="20" as="geometry" />
        </mxCell>
        <mxCell id="NpHVf7ny2RbtNi30LPNa-180" value="peso" style="ellipse;whiteSpace=wrap;html=1;align=center;" vertex="1" parent="1">
          <mxGeometry x="1830" y="1855" width="60" height="20" as="geometry" />
        </mxCell>
        <mxCell id="NpHVf7ny2RbtNi30LPNa-181" value="custo melhoria" style="ellipse;whiteSpace=wrap;html=1;align=center;" vertex="1" parent="1">
          <mxGeometry x="1830" y="1875" width="60" height="40" as="geometry" />
        </mxCell>
        <mxCell id="NpHVf7ny2RbtNi30LPNa-182" value="requisitos" style="ellipse;whiteSpace=wrap;html=1;align=center;" vertex="1" parent="1">
          <mxGeometry x="1830" y="1813" width="60" height="20" as="geometry" />
        </mxCell>
        <mxCell id="NpHVf7ny2RbtNi30LPNa-183" value="habilidade" style="ellipse;whiteSpace=wrap;html=1;align=center;" vertex="1" parent="1">
          <mxGeometry x="1965" y="2078" width="60" height="20" as="geometry" />
        </mxCell>
        <mxCell id="NpHVf7ny2RbtNi30LPNa-184" value="foi derrotado&lt;div&gt;por&lt;/div&gt;" style="shape=rhombus;perimeter=rhombusPerimeter;whiteSpace=wrap;html=1;align=center;" vertex="1" parent="1">
          <mxGeometry x="2890" y="2340" width="120" height="60" as="geometry" />
        </mxCell>
        <mxCell id="NpHVf7ny2RbtNi30LPNa-185" style="edgeStyle=orthogonalEdgeStyle;rounded=0;orthogonalLoop=1;jettySize=auto;html=1;exitX=1;exitY=0.5;exitDx=0;exitDy=0;entryX=0.643;entryY=1.029;entryDx=0;entryDy=0;entryPerimeter=0;jumpStyle=gap;endArrow=none;endFill=0;" edge="1" parent="1" source="NpHVf7ny2RbtNi30LPNa-184" target="NpHVf7ny2RbtNi30LPNa-56">
          <mxGeometry relative="1" as="geometry" />
        </mxCell>
        <mxCell id="NpHVf7ny2RbtNi30LPNa-186" value="(0, N)" style="edgeLabel;html=1;align=center;verticalAlign=middle;resizable=0;points=[];" connectable="0" vertex="1" parent="1">
          <mxGeometry x="2879.996666666667" y="2380" as="geometry">
            <mxPoint x="155" y="-12" as="offset" />
          </mxGeometry>
        </mxCell>
        <mxCell id="NpHVf7ny2RbtNi30LPNa-187" value="Diálogo" style="whiteSpace=wrap;html=1;align=center;" vertex="1" parent="1">
          <mxGeometry x="2777.4400000000005" y="1845" width="95" height="30" as="geometry" />
        </mxCell>
        <mxCell id="NpHVf7ny2RbtNi30LPNa-188" value="fala" style="shape=rhombus;perimeter=rhombusPerimeter;whiteSpace=wrap;html=1;align=center;" vertex="1" parent="1">
          <mxGeometry x="2787.4400000000005" y="1915" width="85" height="50" as="geometry" />
        </mxCell>
        <mxCell id="NpHVf7ny2RbtNi30LPNa-189" value="contém" style="shape=rhombus;perimeter=rhombusPerimeter;whiteSpace=wrap;html=1;align=center;" vertex="1" parent="1">
          <mxGeometry x="1725" y="1605" width="80" height="50" as="geometry" />
        </mxCell>
        <mxCell id="NpHVf7ny2RbtNi30LPNa-190" value="evolui nível" style="shape=rhombus;perimeter=rhombusPerimeter;whiteSpace=wrap;html=1;align=center;" vertex="1" parent="1">
          <mxGeometry x="3010" y="1930" width="100" height="60" as="geometry" />
        </mxCell>
        <mxCell id="NpHVf7ny2RbtNi30LPNa-191" value="id dialogo" style="ellipse;whiteSpace=wrap;html=1;align=center;" vertex="1" parent="1">
          <mxGeometry x="2794.9400000000005" y="1810" width="60" height="20" as="geometry" />
        </mxCell>
        <mxCell id="NpHVf7ny2RbtNi30LPNa-192" style="edgeStyle=orthogonalEdgeStyle;rounded=0;orthogonalLoop=1;jettySize=auto;html=1;endArrow=none;endFill=0;dashed=1;dashPattern=1 1;endSize=1;startSize=3;entryX=0.068;entryY=0.75;entryDx=0;entryDy=0;entryPerimeter=0;exitX=1;exitY=1;exitDx=0;exitDy=0;" edge="1" parent="1" source="NpHVf7ny2RbtNi30LPNa-191" target="NpHVf7ny2RbtNi30LPNa-191">
          <mxGeometry relative="1" as="geometry">
            <mxPoint x="2850" y="1830" as="sourcePoint" />
            <mxPoint x="2794" y="1828" as="targetPoint" />
            <Array as="points">
              <mxPoint x="2850" y="1827" />
              <mxPoint x="2850" y="1825" />
            </Array>
          </mxGeometry>
        </mxCell>
        <mxCell id="NpHVf7ny2RbtNi30LPNa-193" value="" style="shape=link;html=1;rounded=0;entryX=0.5;entryY=1;entryDx=0;entryDy=0;" edge="1" parent="1" target="NpHVf7ny2RbtNi30LPNa-178">
          <mxGeometry relative="1" as="geometry">
            <mxPoint x="1765" y="1920" as="sourcePoint" />
            <mxPoint x="1765" y="1900" as="targetPoint" />
            <Array as="points" />
          </mxGeometry>
        </mxCell>
        <mxCell id="NpHVf7ny2RbtNi30LPNa-194" value="é chave" style="ellipse;whiteSpace=wrap;html=1;align=center;strokeWidth=3;" vertex="1" parent="1">
          <mxGeometry x="1830" y="1690" width="60" height="30" as="geometry" />
        </mxCell>
        <mxCell id="NpHVf7ny2RbtNi30LPNa-195" value="&#xa;&lt;span style=&quot;color: rgb(0, 0, 0); font-family: Helvetica; font-size: 12px; font-style: normal; font-variant-ligatures: normal; font-variant-caps: normal; font-weight: 400; letter-spacing: normal; orphans: 2; text-align: center; text-indent: 0px; text-transform: none; widows: 2; word-spacing: 0px; -webkit-text-stroke-width: 0px; white-space: nowrap; background-color: rgb(251, 251, 251); text-decoration-thickness: initial; text-decoration-style: initial; text-decoration-color: initial; display: inline !important; float: none;&quot;&gt;`não-chave`&lt;/span&gt;&#xa;&#xa;" style="text;html=1;align=center;verticalAlign=middle;resizable=0;points=[];autosize=1;strokeColor=none;fillColor=none;" vertex="1" parent="1">
          <mxGeometry x="1680" y="1815" width="90" height="60" as="geometry" />
        </mxCell>
        <mxCell id="NpHVf7ny2RbtNi30LPNa-196" value="" style="shape=link;html=1;rounded=0;" edge="1" parent="1">
          <mxGeometry relative="1" as="geometry">
            <mxPoint x="1765" y="1950" as="sourcePoint" />
            <mxPoint x="1765" y="1950" as="targetPoint" />
            <Array as="points" />
          </mxGeometry>
        </mxCell>
        <mxCell id="NpHVf7ny2RbtNi30LPNa-197" value="" style="shape=link;html=1;rounded=0;entryX=0.5;entryY=1;entryDx=0;entryDy=0;exitX=0.5;exitY=0;exitDx=0;exitDy=0;" edge="1" parent="1" source="NpHVf7ny2RbtNi30LPNa-316">
          <mxGeometry relative="1" as="geometry">
            <mxPoint x="2590" y="2002" as="sourcePoint" />
            <mxPoint x="2589.66" y="1967" as="targetPoint" />
            <Array as="points" />
          </mxGeometry>
        </mxCell>
        <mxCell id="NpHVf7ny2RbtNi30LPNa-198" value="tipo" style="text;html=1;align=center;verticalAlign=middle;resizable=0;points=[];autosize=1;strokeColor=none;fillColor=none;" vertex="1" parent="1">
          <mxGeometry x="2540" y="1997" width="40" height="30" as="geometry" />
        </mxCell>
        <mxCell id="NpHVf7ny2RbtNi30LPNa-199" value="`jogável´" style="text;html=1;align=center;verticalAlign=middle;resizable=0;points=[];autosize=1;strokeColor=none;fillColor=none;" vertex="1" parent="1">
          <mxGeometry x="3045" y="2025" width="70" height="30" as="geometry" />
        </mxCell>
        <mxCell id="NpHVf7ny2RbtNi30LPNa-200" value="`n-jogável´" style="text;html=1;align=center;verticalAlign=middle;resizable=0;points=[];autosize=1;strokeColor=none;fillColor=none;" vertex="1" parent="1">
          <mxGeometry x="2514.94" y="2083" width="80" height="30" as="geometry" />
        </mxCell>
        <mxCell id="NpHVf7ny2RbtNi30LPNa-201" value="tipo" style="text;html=1;align=center;verticalAlign=middle;resizable=0;points=[];autosize=1;strokeColor=none;fillColor=none;" vertex="1" parent="1">
          <mxGeometry x="1765" y="1895" width="40" height="30" as="geometry" />
        </mxCell>
        <mxCell id="NpHVf7ny2RbtNi30LPNa-202" value="`armadura´" style="text;html=1;align=center;verticalAlign=middle;resizable=0;points=[];autosize=1;strokeColor=none;fillColor=none;" vertex="1" parent="1">
          <mxGeometry x="1440" y="1982" width="80" height="30" as="geometry" />
        </mxCell>
        <mxCell id="NpHVf7ny2RbtNi30LPNa-203" value="&lt;span style=&quot;color: rgb(0, 0, 0); font-family: Helvetica; font-size: 12px; font-style: normal; font-variant-ligatures: normal; font-variant-caps: normal; font-weight: 400; letter-spacing: normal; orphans: 2; text-align: center; text-indent: 0px; text-transform: none; widows: 2; word-spacing: 0px; -webkit-text-stroke-width: 0px; white-space: nowrap; background-color: rgb(251, 251, 251); text-decoration-thickness: initial; text-decoration-style: initial; text-decoration-color: initial; display: inline !important; float: none;&quot;&gt;`arma´&lt;/span&gt;" style="text;whiteSpace=wrap;html=1;" vertex="1" parent="1">
          <mxGeometry x="1765" y="1992" width="90" height="40" as="geometry" />
        </mxCell>
        <mxCell id="NpHVf7ny2RbtNi30LPNa-204" value="&lt;span style=&quot;color: rgb(0, 0, 0); font-family: Helvetica; font-size: 12px; font-style: normal; font-variant-ligatures: normal; font-variant-caps: normal; font-weight: 400; letter-spacing: normal; orphans: 2; text-align: center; text-indent: 0px; text-transform: none; widows: 2; word-spacing: 0px; -webkit-text-stroke-width: 0px; white-space: nowrap; background-color: rgb(251, 251, 251); text-decoration-thickness: initial; text-decoration-style: initial; text-decoration-color: initial; display: inline !important; float: none;&quot;&gt;`esc.´&lt;/span&gt;" style="text;whiteSpace=wrap;html=1;" vertex="1" parent="1">
          <mxGeometry x="1955" y="1992" width="90" height="40" as="geometry" />
        </mxCell>
        <mxCell id="NpHVf7ny2RbtNi30LPNa-205" value="" style="edgeStyle=orthogonalEdgeStyle;rounded=0;orthogonalLoop=1;jettySize=auto;html=1;exitX=0.5;exitY=1;exitDx=0;exitDy=0;entryX=0.5;entryY=0;entryDx=0;entryDy=0;endArrow=none;endFill=0;startArrow=block;startFill=0;" edge="1" parent="1" source="NpHVf7ny2RbtNi30LPNa-38" target="NpHVf7ny2RbtNi30LPNa-206">
          <mxGeometry relative="1" as="geometry">
            <Array as="points" />
            <mxPoint x="2590" y="2150" as="sourcePoint" />
            <mxPoint x="2520" y="2300" as="targetPoint" />
          </mxGeometry>
        </mxCell>
        <mxCell id="NpHVf7ny2RbtNi30LPNa-206" value="O" style="ellipse;whiteSpace=wrap;html=1;aspect=fixed;" vertex="1" parent="1">
          <mxGeometry x="2573.75" y="2180" width="32.5" height="32.5" as="geometry" />
        </mxCell>
        <mxCell id="NpHVf7ny2RbtNi30LPNa-207" value="função" style="text;html=1;align=center;verticalAlign=middle;resizable=0;points=[];autosize=1;strokeColor=none;fillColor=none;" vertex="1" parent="1">
          <mxGeometry x="2584.94" y="2155" width="60" height="30" as="geometry" />
        </mxCell>
        <mxCell id="NpHVf7ny2RbtNi30LPNa-208" value="`ini.´" style="text;html=1;align=center;verticalAlign=middle;resizable=0;points=[];autosize=1;strokeColor=none;fillColor=none;" vertex="1" parent="1">
          <mxGeometry x="2525" y="2268" width="50" height="30" as="geometry" />
        </mxCell>
        <mxCell id="NpHVf7ny2RbtNi30LPNa-209" value="&lt;span style=&quot;color: rgb(0, 0, 0); font-family: Helvetica; font-size: 12px; font-style: normal; font-variant-ligatures: normal; font-variant-caps: normal; font-weight: 400; letter-spacing: normal; orphans: 2; text-align: center; text-indent: 0px; text-transform: none; widows: 2; word-spacing: 0px; -webkit-text-stroke-width: 0px; white-space: nowrap; background-color: rgb(251, 251, 251); text-decoration-thickness: initial; text-decoration-style: initial; text-decoration-color: initial; display: inline !important; float: none;&quot;&gt;`chefe´&lt;/span&gt;" style="text;whiteSpace=wrap;html=1;" vertex="1" parent="1">
          <mxGeometry x="2640" y="2268" width="80" height="40" as="geometry" />
        </mxCell>
        <mxCell id="NpHVf7ny2RbtNi30LPNa-210" value="&lt;span style=&quot;color: rgb(0, 0, 0); font-family: Helvetica; font-size: 12px; font-style: normal; font-variant-ligatures: normal; font-variant-caps: normal; font-weight: 400; letter-spacing: normal; orphans: 2; text-align: center; text-indent: 0px; text-transform: none; widows: 2; word-spacing: 0px; -webkit-text-stroke-width: 0px; white-space: nowrap; background-color: rgb(251, 251, 251); text-decoration-thickness: initial; text-decoration-style: initial; text-decoration-color: initial; display: inline !important; float: none;&quot;&gt;`ferr.´&lt;/span&gt;" style="text;whiteSpace=wrap;html=1;" vertex="1" parent="1">
          <mxGeometry x="2750" y="2210" width="80" height="40" as="geometry" />
        </mxCell>
        <mxCell id="NpHVf7ny2RbtNi30LPNa-211" style="edgeStyle=orthogonalEdgeStyle;rounded=0;orthogonalLoop=1;jettySize=auto;html=1;exitX=1;exitY=0.5;exitDx=0;exitDy=0;entryX=0.5;entryY=0;entryDx=0;entryDy=0;endArrow=none;endFill=0;" edge="1" parent="1" source="NpHVf7ny2RbtNi30LPNa-213" target="NpHVf7ny2RbtNi30LPNa-215">
          <mxGeometry relative="1" as="geometry">
            <mxPoint x="1950" y="2150.333333333333" as="targetPoint" />
          </mxGeometry>
        </mxCell>
        <mxCell id="NpHVf7ny2RbtNi30LPNa-212" value="(1,1)" style="edgeLabel;html=1;align=center;verticalAlign=middle;resizable=0;points=[];" connectable="0" vertex="1" parent="NpHVf7ny2RbtNi30LPNa-211">
          <mxGeometry x="-0.6222" y="2" relative="1" as="geometry">
            <mxPoint x="-2" y="7" as="offset" />
          </mxGeometry>
        </mxCell>
        <mxCell id="NpHVf7ny2RbtNi30LPNa-213" value="recebe" style="shape=rhombus;perimeter=rhombusPerimeter;whiteSpace=wrap;html=1;align=center;" vertex="1" parent="1">
          <mxGeometry x="1880" y="2098" width="100" height="60" as="geometry" />
        </mxCell>
        <mxCell id="NpHVf7ny2RbtNi30LPNa-214" style="edgeStyle=orthogonalEdgeStyle;rounded=0;orthogonalLoop=1;jettySize=auto;html=1;exitX=0.5;exitY=1;exitDx=0;exitDy=0;entryX=0.5;entryY=0;entryDx=0;entryDy=0;endArrow=none;endFill=0;" edge="1" parent="1" source="NpHVf7ny2RbtNi30LPNa-215" target="NpHVf7ny2RbtNi30LPNa-216">
          <mxGeometry relative="1" as="geometry" />
        </mxCell>
        <mxCell id="NpHVf7ny2RbtNi30LPNa-215" value="Engaste" style="whiteSpace=wrap;html=1;align=center;" vertex="1" parent="1">
          <mxGeometry x="1955" y="2263" width="100" height="40" as="geometry" />
        </mxCell>
        <mxCell id="NpHVf7ny2RbtNi30LPNa-216" value="&lt;u&gt;id engaste&lt;/u&gt;" style="ellipse;whiteSpace=wrap;html=1;align=center;" vertex="1" parent="1">
          <mxGeometry x="1970" y="2310" width="70" height="30" as="geometry" />
        </mxCell>
        <mxCell id="NpHVf7ny2RbtNi30LPNa-217" value="atributo extra" style="ellipse;whiteSpace=wrap;html=1;align=center;" vertex="1" parent="1">
          <mxGeometry x="1970" y="2340" width="70" height="30" as="geometry" />
        </mxCell>
        <mxCell id="NpHVf7ny2RbtNi30LPNa-218" value="nome" style="ellipse;whiteSpace=wrap;html=1;align=center;" vertex="1" parent="1">
          <mxGeometry x="3495" y="2083" width="50" height="21" as="geometry" />
        </mxCell>
        <mxCell id="NpHVf7ny2RbtNi30LPNa-219" value="atributos" style="ellipse;whiteSpace=wrap;html=1;align=center;" vertex="1" parent="1">
          <mxGeometry x="3240" y="1987.5" width="60" height="20" as="geometry" />
        </mxCell>
        <mxCell id="NpHVf7ny2RbtNi30LPNa-220" value="" style="endArrow=none;html=1;rounded=0;entryX=0;entryY=0.5;entryDx=0;entryDy=0;exitX=0.5;exitY=0;exitDx=0;exitDy=0;" edge="1" parent="1" source="NpHVf7ny2RbtNi30LPNa-219" target="NpHVf7ny2RbtNi30LPNa-105">
          <mxGeometry width="50" height="50" relative="1" as="geometry">
            <mxPoint x="3340" y="1932" as="sourcePoint" />
            <mxPoint x="3380" y="1892" as="targetPoint" />
          </mxGeometry>
        </mxCell>
        <mxCell id="NpHVf7ny2RbtNi30LPNa-221" value="" style="endArrow=none;html=1;rounded=0;entryX=0;entryY=0.5;entryDx=0;entryDy=0;" edge="1" parent="1" source="NpHVf7ny2RbtNi30LPNa-219" target="NpHVf7ny2RbtNi30LPNa-104">
          <mxGeometry width="50" height="50" relative="1" as="geometry">
            <mxPoint x="3340" y="1942" as="sourcePoint" />
            <mxPoint x="3395" y="1865" as="targetPoint" />
          </mxGeometry>
        </mxCell>
        <mxCell id="NpHVf7ny2RbtNi30LPNa-222" value="" style="endArrow=none;html=1;rounded=0;exitX=0.5;exitY=0;exitDx=0;exitDy=0;entryX=0;entryY=0.5;entryDx=0;entryDy=0;" edge="1" parent="1" source="NpHVf7ny2RbtNi30LPNa-219" target="NpHVf7ny2RbtNi30LPNa-95">
          <mxGeometry width="50" height="50" relative="1" as="geometry">
            <mxPoint x="3360" y="1962" as="sourcePoint" />
            <mxPoint x="3384" y="1872" as="targetPoint" />
          </mxGeometry>
        </mxCell>
        <mxCell id="NpHVf7ny2RbtNi30LPNa-223" value="" style="endArrow=none;html=1;rounded=0;entryX=0;entryY=0.5;entryDx=0;entryDy=0;exitX=0.5;exitY=0;exitDx=0;exitDy=0;" edge="1" parent="1" source="NpHVf7ny2RbtNi30LPNa-219" target="NpHVf7ny2RbtNi30LPNa-94">
          <mxGeometry width="50" height="50" relative="1" as="geometry">
            <mxPoint x="3370" y="1972" as="sourcePoint" />
            <mxPoint x="3415" y="1885" as="targetPoint" />
          </mxGeometry>
        </mxCell>
        <mxCell id="NpHVf7ny2RbtNi30LPNa-224" value="" style="endArrow=none;html=1;rounded=0;entryX=0;entryY=0.5;entryDx=0;entryDy=0;exitX=0.5;exitY=0;exitDx=0;exitDy=0;" edge="1" parent="1" source="NpHVf7ny2RbtNi30LPNa-219" target="NpHVf7ny2RbtNi30LPNa-93">
          <mxGeometry width="50" height="50" relative="1" as="geometry">
            <mxPoint x="3340" y="1942" as="sourcePoint" />
            <mxPoint x="3425" y="1895" as="targetPoint" />
          </mxGeometry>
        </mxCell>
        <mxCell id="NpHVf7ny2RbtNi30LPNa-225" value="" style="endArrow=none;html=1;rounded=0;entryX=0;entryY=0.5;entryDx=0;entryDy=0;exitX=0.5;exitY=0;exitDx=0;exitDy=0;" edge="1" parent="1" source="NpHVf7ny2RbtNi30LPNa-219" target="NpHVf7ny2RbtNi30LPNa-92">
          <mxGeometry width="50" height="50" relative="1" as="geometry">
            <mxPoint x="3350" y="1953" as="sourcePoint" />
            <mxPoint x="3435" y="1905" as="targetPoint" />
          </mxGeometry>
        </mxCell>
        <mxCell id="NpHVf7ny2RbtNi30LPNa-226" value="base str" style="ellipse;whiteSpace=wrap;html=1;align=center;" vertex="1" parent="1">
          <mxGeometry x="3490" y="2206" width="60" height="20" as="geometry" />
        </mxCell>
        <mxCell id="NpHVf7ny2RbtNi30LPNa-227" value="base dex" style="ellipse;whiteSpace=wrap;html=1;align=center;" vertex="1" parent="1">
          <mxGeometry x="3490" y="2184" width="60" height="20" as="geometry" />
        </mxCell>
        <mxCell id="NpHVf7ny2RbtNi30LPNa-228" value="base fé" style="ellipse;whiteSpace=wrap;html=1;align=center;" vertex="1" parent="1">
          <mxGeometry x="3490" y="2164" width="60" height="20" as="geometry" />
        </mxCell>
        <mxCell id="NpHVf7ny2RbtNi30LPNa-229" value="base int" style="ellipse;whiteSpace=wrap;html=1;align=center;" vertex="1" parent="1">
          <mxGeometry x="3490" y="2144" width="60" height="20" as="geometry" />
        </mxCell>
        <mxCell id="NpHVf7ny2RbtNi30LPNa-230" value="base vig" style="ellipse;whiteSpace=wrap;html=1;align=center;" vertex="1" parent="1">
          <mxGeometry x="3490" y="2124" width="60" height="20" as="geometry" />
        </mxCell>
        <mxCell id="NpHVf7ny2RbtNi30LPNa-231" value="base vit" style="ellipse;whiteSpace=wrap;html=1;align=center;" vertex="1" parent="1">
          <mxGeometry x="3490" y="2104" width="60" height="20" as="geometry" />
        </mxCell>
        <mxCell id="NpHVf7ny2RbtNi30LPNa-232" style="edgeStyle=orthogonalEdgeStyle;rounded=0;orthogonalLoop=1;jettySize=auto;html=1;exitX=0.5;exitY=1;exitDx=0;exitDy=0;entryX=0;entryY=0.5;entryDx=0;entryDy=0;endArrow=none;endFill=0;" edge="1" parent="1" source="NpHVf7ny2RbtNi30LPNa-233" target="NpHVf7ny2RbtNi30LPNa-190">
          <mxGeometry relative="1" as="geometry" />
        </mxCell>
        <mxCell id="NpHVf7ny2RbtNi30LPNa-233" value="Subir de Nível" style="whiteSpace=wrap;html=1;align=center;" vertex="1" parent="1">
          <mxGeometry x="2930" y="1855" width="100" height="40" as="geometry" />
        </mxCell>
        <mxCell id="NpHVf7ny2RbtNi30LPNa-234" value="&lt;u&gt;nro nível&lt;/u&gt;" style="ellipse;whiteSpace=wrap;html=1;align=center;" vertex="1" parent="1">
          <mxGeometry x="2950" y="1830" width="60" height="25" as="geometry" />
        </mxCell>
        <mxCell id="NpHVf7ny2RbtNi30LPNa-235" value="runas necessárias" style="ellipse;whiteSpace=wrap;html=1;align=center;" vertex="1" parent="1">
          <mxGeometry x="2935" y="1800" width="90" height="30" as="geometry" />
        </mxCell>
        <mxCell id="NpHVf7ny2RbtNi30LPNa-236" style="edgeStyle=orthogonalEdgeStyle;rounded=0;orthogonalLoop=1;jettySize=auto;html=1;exitX=0.5;exitY=1;exitDx=0;exitDy=0;endArrow=none;endFill=0;" edge="1" parent="1" source="NpHVf7ny2RbtNi30LPNa-237">
          <mxGeometry relative="1" as="geometry">
            <mxPoint x="2660" y="2690" as="targetPoint" />
          </mxGeometry>
        </mxCell>
        <mxCell id="NpHVf7ny2RbtNi30LPNa-237" value="Golpes" style="whiteSpace=wrap;html=1;align=center;" vertex="1" parent="1">
          <mxGeometry x="2610" y="2640" width="100" height="40" as="geometry" />
        </mxCell>
        <mxCell id="NpHVf7ny2RbtNi30LPNa-238" value="realiza" style="shape=rhombus;perimeter=rhombusPerimeter;whiteSpace=wrap;html=1;align=center;" vertex="1" parent="1">
          <mxGeometry x="2455" y="2635" width="90" height="50" as="geometry" />
        </mxCell>
        <mxCell id="NpHVf7ny2RbtNi30LPNa-239" value="(1,N)" style="edgeLabel;html=1;align=center;verticalAlign=middle;resizable=0;points=[];" connectable="0" vertex="1" parent="1">
          <mxGeometry x="2440.0014285714296" y="2660" as="geometry">
            <mxPoint x="129" y="2" as="offset" />
          </mxGeometry>
        </mxCell>
        <mxCell id="NpHVf7ny2RbtNi30LPNa-240" value="multiplicador" style="ellipse;whiteSpace=wrap;html=1;align=center;" vertex="1" parent="1">
          <mxGeometry x="2619.94" y="2710" width="80" height="20" as="geometry" />
        </mxCell>
        <mxCell id="NpHVf7ny2RbtNi30LPNa-241" value="dano final" style="ellipse;whiteSpace=wrap;html=1;align=center;dashed=1;" vertex="1" parent="1">
          <mxGeometry x="2620" y="2730" width="80" height="20" as="geometry" />
        </mxCell>
        <mxCell id="NpHVf7ny2RbtNi30LPNa-242" value="&lt;u&gt;id golpe&lt;/u&gt;" style="ellipse;whiteSpace=wrap;html=1;align=center;" vertex="1" parent="1">
          <mxGeometry x="2619.94" y="2690" width="80" height="20" as="geometry" />
        </mxCell>
        <mxCell id="NpHVf7ny2RbtNi30LPNa-243" value="desperate move" style="ellipse;whiteSpace=wrap;html=1;align=center;" vertex="1" parent="1">
          <mxGeometry x="2622.41" y="2390" width="67.59" height="40" as="geometry" />
        </mxCell>
        <mxCell id="NpHVf7ny2RbtNi30LPNa-244" value="realiza" style="shape=rhombus;perimeter=rhombusPerimeter;whiteSpace=wrap;html=1;align=center;" vertex="1" parent="1">
          <mxGeometry x="2704.94" y="2590" width="90" height="50" as="geometry" />
        </mxCell>
        <mxCell id="NpHVf7ny2RbtNi30LPNa-245" value="(1,N)" style="edgeLabel;html=1;align=center;verticalAlign=middle;resizable=0;points=[];" connectable="0" vertex="1" parent="1">
          <mxGeometry x="2759.9971428571434" y="2550" as="geometry">
            <mxPoint x="-14" y="-6" as="offset" />
          </mxGeometry>
        </mxCell>
        <mxCell id="NpHVf7ny2RbtNi30LPNa-246" style="edgeStyle=orthogonalEdgeStyle;rounded=0;orthogonalLoop=1;jettySize=auto;html=1;entryX=0.75;entryY=0;entryDx=0;entryDy=0;endArrow=none;endFill=0;exitX=0.5;exitY=1;exitDx=0;exitDy=0;" edge="1" parent="1" source="NpHVf7ny2RbtNi30LPNa-252" target="NpHVf7ny2RbtNi30LPNa-56">
          <mxGeometry relative="1" as="geometry">
            <mxPoint x="3235.0370370370365" y="1891.979423868313" as="sourcePoint" />
          </mxGeometry>
        </mxCell>
        <mxCell id="NpHVf7ny2RbtNi30LPNa-247" value="(1, N)" style="edgeLabel;html=1;align=center;verticalAlign=middle;resizable=0;points=[];" connectable="0" vertex="1" parent="NpHVf7ny2RbtNi30LPNa-246">
          <mxGeometry x="0.8339" y="-2" relative="1" as="geometry">
            <mxPoint as="offset" />
          </mxGeometry>
        </mxCell>
        <mxCell id="NpHVf7ny2RbtNi30LPNa-248" style="edgeStyle=orthogonalEdgeStyle;rounded=0;orthogonalLoop=1;jettySize=auto;html=1;entryX=0.5;entryY=0;entryDx=0;entryDy=0;endArrow=none;endFill=0;" edge="1" parent="1" source="NpHVf7ny2RbtNi30LPNa-251" target="NpHVf7ny2RbtNi30LPNa-252">
          <mxGeometry relative="1" as="geometry" />
        </mxCell>
        <mxCell id="NpHVf7ny2RbtNi30LPNa-249" value="(1, N)" style="edgeLabel;html=1;align=center;verticalAlign=middle;resizable=0;points=[];" connectable="0" vertex="1" parent="NpHVf7ny2RbtNi30LPNa-248">
          <mxGeometry x="-0.6597" y="-2" relative="1" as="geometry">
            <mxPoint x="-10" y="2" as="offset" />
          </mxGeometry>
        </mxCell>
        <mxCell id="NpHVf7ny2RbtNi30LPNa-250" style="edgeStyle=orthogonalEdgeStyle;rounded=0;orthogonalLoop=1;jettySize=auto;html=1;exitX=0.5;exitY=0;exitDx=0;exitDy=0;entryX=1;entryY=0.5;entryDx=0;entryDy=0;endArrow=none;endFill=0;" edge="1" parent="1" source="NpHVf7ny2RbtNi30LPNa-251" target="NpHVf7ny2RbtNi30LPNa-285">
          <mxGeometry relative="1" as="geometry" />
        </mxCell>
        <mxCell id="NpHVf7ny2RbtNi30LPNa-251" value="Area de Morte" style="whiteSpace=wrap;html=1;align=center;" vertex="1" parent="1">
          <mxGeometry x="3445" y="1773" width="100" height="40" as="geometry" />
        </mxCell>
        <mxCell id="NpHVf7ny2RbtNi30LPNa-252" value="morreu" style="shape=rhombus;perimeter=rhombusPerimeter;whiteSpace=wrap;html=1;align=center;" vertex="1" parent="1">
          <mxGeometry x="3190" y="1842" width="90" height="50" as="geometry" />
        </mxCell>
        <mxCell id="NpHVf7ny2RbtNi30LPNa-253" value="efeito" style="ellipse;whiteSpace=wrap;html=1;align=center;" vertex="1" parent="1">
          <mxGeometry x="2032.5" y="1870" width="60" height="20" as="geometry" />
        </mxCell>
        <mxCell id="NpHVf7ny2RbtNi30LPNa-254" value="descrição" style="ellipse;whiteSpace=wrap;html=1;align=center;" vertex="1" parent="1">
          <mxGeometry x="2032.5" y="1889" width="60" height="20" as="geometry" />
        </mxCell>
        <mxCell id="NpHVf7ny2RbtNi30LPNa-255" style="edgeStyle=orthogonalEdgeStyle;rounded=0;orthogonalLoop=1;jettySize=auto;html=1;entryX=0.5;entryY=0;entryDx=0;entryDy=0;endArrow=none;endFill=0;" edge="1" parent="1" source="NpHVf7ny2RbtNi30LPNa-256" target="NpHVf7ny2RbtNi30LPNa-261">
          <mxGeometry relative="1" as="geometry" />
        </mxCell>
        <mxCell id="NpHVf7ny2RbtNi30LPNa-256" value="Cajado" style="whiteSpace=wrap;html=1;align=center;" vertex="1" parent="1">
          <mxGeometry x="1420" y="2210" width="100" height="40" as="geometry" />
        </mxCell>
        <mxCell id="NpHVf7ny2RbtNi30LPNa-257" style="edgeStyle=orthogonalEdgeStyle;rounded=0;orthogonalLoop=1;jettySize=auto;html=1;endArrow=none;endFill=0;entryX=0.5;entryY=1;entryDx=0;entryDy=0;exitX=1;exitY=0.5;exitDx=0;exitDy=0;shape=link;" edge="1" parent="1">
          <mxGeometry relative="1" as="geometry">
            <mxPoint x="1764.88" y="2077.5" as="sourcePoint" />
            <mxPoint x="1764.88" y="2055" as="targetPoint" />
          </mxGeometry>
        </mxCell>
        <mxCell id="NpHVf7ny2RbtNi30LPNa-258" style="edgeStyle=orthogonalEdgeStyle;rounded=0;orthogonalLoop=1;jettySize=auto;html=1;endArrow=none;endFill=0;" edge="1" parent="1" source="NpHVf7ny2RbtNi30LPNa-260" target="NpHVf7ny2RbtNi30LPNa-262">
          <mxGeometry relative="1" as="geometry" />
        </mxCell>
        <mxCell id="NpHVf7ny2RbtNi30LPNa-259" style="edgeStyle=orthogonalEdgeStyle;rounded=0;orthogonalLoop=1;jettySize=auto;html=1;entryX=0;entryY=0.5;entryDx=0;entryDy=0;endArrow=none;endFill=0;exitX=0.5;exitY=0;exitDx=0;exitDy=0;" edge="1" parent="1" source="NpHVf7ny2RbtNi30LPNa-260">
          <mxGeometry relative="1" as="geometry">
            <mxPoint x="1600" y="2209" as="sourcePoint" />
            <mxPoint x="1758.6999999999998" y="2102" as="targetPoint" />
            <Array as="points">
              <mxPoint x="1605" y="2139" />
              <mxPoint x="1759" y="2139" />
            </Array>
          </mxGeometry>
        </mxCell>
        <mxCell id="NpHVf7ny2RbtNi30LPNa-260" value="Selo" style="whiteSpace=wrap;html=1;align=center;" vertex="1" parent="1">
          <mxGeometry x="1555" y="2210" width="100" height="40" as="geometry" />
        </mxCell>
        <mxCell id="NpHVf7ny2RbtNi30LPNa-261" value="Proficiência" style="ellipse;whiteSpace=wrap;html=1;align=center;" vertex="1" parent="1">
          <mxGeometry x="1435" y="2253" width="70" height="22" as="geometry" />
        </mxCell>
        <mxCell id="NpHVf7ny2RbtNi30LPNa-262" value="Milagre" style="ellipse;whiteSpace=wrap;html=1;align=center;" vertex="1" parent="1">
          <mxGeometry x="1570" y="2254" width="70" height="22" as="geometry" />
        </mxCell>
        <mxCell id="NpHVf7ny2RbtNi30LPNa-263" value="`cajado´" style="text;html=1;align=center;verticalAlign=middle;resizable=0;points=[];autosize=1;strokeColor=none;fillColor=none;" vertex="1" parent="1">
          <mxGeometry x="1460" y="2185" width="70" height="30" as="geometry" />
        </mxCell>
        <mxCell id="NpHVf7ny2RbtNi30LPNa-264" value="`selo´" style="text;html=1;align=center;verticalAlign=middle;resizable=0;points=[];autosize=1;strokeColor=none;fillColor=none;" vertex="1" parent="1">
          <mxGeometry x="1605" y="2185" width="50" height="30" as="geometry" />
        </mxCell>
        <mxCell id="NpHVf7ny2RbtNi30LPNa-265" style="edgeStyle=orthogonalEdgeStyle;rounded=0;orthogonalLoop=1;jettySize=auto;html=1;entryX=0.5;entryY=0;entryDx=0;entryDy=0;endArrow=none;endFill=0;" edge="1" parent="1" source="NpHVf7ny2RbtNi30LPNa-267" target="NpHVf7ny2RbtNi30LPNa-272">
          <mxGeometry relative="1" as="geometry" />
        </mxCell>
        <mxCell id="NpHVf7ny2RbtNi30LPNa-266" style="edgeStyle=orthogonalEdgeStyle;rounded=0;orthogonalLoop=1;jettySize=auto;html=1;entryX=0;entryY=0.5;entryDx=0;entryDy=0;endArrow=none;endFill=0;" edge="1" parent="1" source="NpHVf7ny2RbtNi30LPNa-267">
          <mxGeometry relative="1" as="geometry">
            <mxPoint x="1765" y="2103" as="targetPoint" />
          </mxGeometry>
        </mxCell>
        <mxCell id="NpHVf7ny2RbtNi30LPNa-267" value="Armas Leves" style="whiteSpace=wrap;html=1;align=center;" vertex="1" parent="1">
          <mxGeometry x="1685" y="2210" width="100" height="40" as="geometry" />
        </mxCell>
        <mxCell id="NpHVf7ny2RbtNi30LPNa-268" style="edgeStyle=orthogonalEdgeStyle;rounded=0;orthogonalLoop=1;jettySize=auto;html=1;entryX=0.5;entryY=0;entryDx=0;entryDy=0;endArrow=none;endFill=0;" edge="1" parent="1" source="NpHVf7ny2RbtNi30LPNa-270" target="NpHVf7ny2RbtNi30LPNa-271">
          <mxGeometry relative="1" as="geometry" />
        </mxCell>
        <mxCell id="NpHVf7ny2RbtNi30LPNa-269" style="edgeStyle=orthogonalEdgeStyle;rounded=0;orthogonalLoop=1;jettySize=auto;html=1;entryX=0;entryY=0.5;entryDx=0;entryDy=0;endArrow=none;endFill=0;" edge="1" parent="1" source="NpHVf7ny2RbtNi30LPNa-270">
          <mxGeometry relative="1" as="geometry">
            <Array as="points">
              <mxPoint x="1860" y="2103" />
            </Array>
            <mxPoint x="1765" y="2103" as="targetPoint" />
          </mxGeometry>
        </mxCell>
        <mxCell id="NpHVf7ny2RbtNi30LPNa-270" value="Armas Pesadas" style="whiteSpace=wrap;html=1;align=center;" vertex="1" parent="1">
          <mxGeometry x="1810" y="2210" width="100" height="40" as="geometry" />
        </mxCell>
        <mxCell id="NpHVf7ny2RbtNi30LPNa-271" value="Força" style="ellipse;whiteSpace=wrap;html=1;align=center;" vertex="1" parent="1">
          <mxGeometry x="1825" y="2254" width="70" height="22" as="geometry" />
        </mxCell>
        <mxCell id="NpHVf7ny2RbtNi30LPNa-272" value="Destreza" style="ellipse;whiteSpace=wrap;html=1;align=center;" vertex="1" parent="1">
          <mxGeometry x="1700" y="2254" width="70" height="22" as="geometry" />
        </mxCell>
        <mxCell id="NpHVf7ny2RbtNi30LPNa-273" value="`armaLeve´" style="text;html=1;align=center;verticalAlign=middle;resizable=0;points=[];autosize=1;strokeColor=none;fillColor=none;" vertex="1" parent="1">
          <mxGeometry x="1735" y="2185" width="80" height="30" as="geometry" />
        </mxCell>
        <mxCell id="NpHVf7ny2RbtNi30LPNa-274" value="`armaPesada´" style="text;html=1;align=center;verticalAlign=middle;resizable=0;points=[];autosize=1;strokeColor=none;fillColor=none;" vertex="1" parent="1">
          <mxGeometry x="1850" y="2185" width="100" height="30" as="geometry" />
        </mxCell>
        <mxCell id="NpHVf7ny2RbtNi30LPNa-275" style="edgeStyle=orthogonalEdgeStyle;rounded=0;orthogonalLoop=1;jettySize=auto;html=1;endArrow=none;endFill=0;exitX=0.5;exitY=0;exitDx=0;exitDy=0;" edge="1" parent="1" source="NpHVf7ny2RbtNi30LPNa-256">
          <mxGeometry relative="1" as="geometry">
            <mxPoint x="1470" y="2202.5" as="sourcePoint" />
            <mxPoint x="1765" y="2103" as="targetPoint" />
            <Array as="points">
              <mxPoint x="1470" y="2103" />
            </Array>
          </mxGeometry>
        </mxCell>
        <mxCell id="NpHVf7ny2RbtNi30LPNa-276" style="edgeStyle=orthogonalEdgeStyle;rounded=0;orthogonalLoop=1;jettySize=auto;html=1;exitX=1;exitY=0.5;exitDx=0;exitDy=0;entryX=0;entryY=0.5;entryDx=0;entryDy=0;endArrow=none;endFill=0;" edge="1" parent="1" source="NpHVf7ny2RbtNi30LPNa-277" target="NpHVf7ny2RbtNi30LPNa-229">
          <mxGeometry relative="1" as="geometry">
            <mxPoint x="3430" y="2156.97" as="sourcePoint" />
          </mxGeometry>
        </mxCell>
        <mxCell id="NpHVf7ny2RbtNi30LPNa-277" value="Classe" style="whiteSpace=wrap;html=1;align=center;" vertex="1" parent="1">
          <mxGeometry x="3380" y="2136.5" width="100" height="40" as="geometry" />
        </mxCell>
        <mxCell id="NpHVf7ny2RbtNi30LPNa-278" style="edgeStyle=orthogonalEdgeStyle;rounded=0;orthogonalLoop=1;jettySize=auto;html=1;exitX=1;exitY=0.5;exitDx=0;exitDy=0;entryX=0;entryY=0.5;entryDx=0;entryDy=0;endArrow=none;endFill=0;" edge="1" parent="1" source="NpHVf7ny2RbtNi30LPNa-279" target="NpHVf7ny2RbtNi30LPNa-277">
          <mxGeometry relative="1" as="geometry" />
        </mxCell>
        <mxCell id="NpHVf7ny2RbtNi30LPNa-279" value="possui" style="shape=rhombus;perimeter=rhombusPerimeter;whiteSpace=wrap;html=1;align=center;" vertex="1" parent="1">
          <mxGeometry x="3270" y="2130" width="80" height="55" as="geometry" />
        </mxCell>
        <mxCell id="NpHVf7ny2RbtNi30LPNa-280" value="(1,N)" style="edgeLabel;html=1;align=center;verticalAlign=middle;resizable=0;points=[];" connectable="0" vertex="1" parent="1">
          <mxGeometry x="3580" y="2082.996666666667" as="geometry">
            <mxPoint x="-222" y="62" as="offset" />
          </mxGeometry>
        </mxCell>
        <mxCell id="NpHVf7ny2RbtNi30LPNa-281" value="&lt;span style=&quot;color: rgb(0, 0, 0); font-family: Helvetica; font-size: 11px; font-style: normal; font-variant-ligatures: normal; font-variant-caps: normal; font-weight: 400; letter-spacing: normal; orphans: 2; text-align: center; text-indent: 0px; text-transform: none; widows: 2; word-spacing: 0px; -webkit-text-stroke-width: 0px; white-space: nowrap; background-color: rgb(255, 255, 255); text-decoration-thickness: initial; text-decoration-style: initial; text-decoration-color: initial; display: inline !important; float: none;&quot;&gt;(1,N)&lt;/span&gt;" style="text;whiteSpace=wrap;html=1;" vertex="1" parent="1">
          <mxGeometry x="3230" y="2134" width="60" height="40" as="geometry" />
        </mxCell>
        <mxCell id="NpHVf7ny2RbtNi30LPNa-282" value="runa" style="ellipse;whiteSpace=wrap;html=1;align=center;" vertex="1" parent="1">
          <mxGeometry x="3240" y="2100" width="60" height="20" as="geometry" />
        </mxCell>
        <mxCell id="NpHVf7ny2RbtNi30LPNa-283" value="runas dropadas" style="ellipse;whiteSpace=wrap;html=1;align=center;" vertex="1" parent="1">
          <mxGeometry x="3450" y="1813" width="90" height="27" as="geometry" />
        </mxCell>
        <mxCell id="NpHVf7ny2RbtNi30LPNa-284" value="(0, 1)" style="edgeLabel;html=1;align=center;verticalAlign=middle;resizable=0;points=[];" connectable="0" vertex="1" parent="1">
          <mxGeometry x="3445" y="1813.0026315789473" as="geometry">
            <mxPoint x="32" y="-55" as="offset" />
          </mxGeometry>
        </mxCell>
        <mxCell id="NpHVf7ny2RbtNi30LPNa-285" value="é uma" style="shape=rhombus;perimeter=rhombusPerimeter;whiteSpace=wrap;html=1;align=center;" vertex="1" parent="1">
          <mxGeometry x="3210" y="1700" width="120" height="50" as="geometry" />
        </mxCell>
        <mxCell id="NpHVf7ny2RbtNi30LPNa-286" style="edgeStyle=orthogonalEdgeStyle;rounded=0;orthogonalLoop=1;jettySize=auto;html=1;exitX=0;exitY=0.5;exitDx=0;exitDy=0;entryX=0.835;entryY=0.987;entryDx=0;entryDy=0;entryPerimeter=0;endArrow=none;endFill=0;" edge="1" parent="1" source="NpHVf7ny2RbtNi30LPNa-285" target="NpHVf7ny2RbtNi30LPNa-11">
          <mxGeometry relative="1" as="geometry">
            <Array as="points">
              <mxPoint x="3210" y="1710" />
              <mxPoint x="2784" y="1710" />
            </Array>
          </mxGeometry>
        </mxCell>
        <mxCell id="NpHVf7ny2RbtNi30LPNa-287" value="(0,1)" style="edgeLabel;html=1;align=center;verticalAlign=middle;resizable=0;points=[];" connectable="0" vertex="1" parent="1">
          <mxGeometry x="3130.0021739130434" y="1710.0034782608695" as="geometry">
            <mxPoint x="6" y="1" as="offset" />
          </mxGeometry>
        </mxCell>
        <mxCell id="NpHVf7ny2RbtNi30LPNa-288" style="edgeStyle=orthogonalEdgeStyle;rounded=0;orthogonalLoop=1;jettySize=auto;html=1;exitX=0.5;exitY=0;exitDx=0;exitDy=0;strokeColor=default;align=center;verticalAlign=middle;fontFamily=Helvetica;fontSize=11;fontColor=default;labelBackgroundColor=default;endArrow=none;endFill=0;entryX=0.92;entryY=0.9;entryDx=0;entryDy=0;entryPerimeter=0;" edge="1" parent="1" source="NpHVf7ny2RbtNi30LPNa-290" target="NpHVf7ny2RbtNi30LPNa-56">
          <mxGeometry relative="1" as="geometry">
            <mxPoint x="3220" y="2490" as="targetPoint" />
          </mxGeometry>
        </mxCell>
        <mxCell id="NpHVf7ny2RbtNi30LPNa-289" value="(1,1)" style="edgeLabel;html=1;align=center;verticalAlign=middle;resizable=0;points=[];fontFamily=Helvetica;fontSize=11;fontColor=default;labelBackgroundColor=default;" connectable="0" vertex="1" parent="NpHVf7ny2RbtNi30LPNa-288">
          <mxGeometry x="-0.9473" y="2" relative="1" as="geometry">
            <mxPoint as="offset" />
          </mxGeometry>
        </mxCell>
        <mxCell id="NpHVf7ny2RbtNi30LPNa-290" value="Equipa" style="shape=rhombus;perimeter=rhombusPerimeter;whiteSpace=wrap;html=1;align=center;" vertex="1" parent="1">
          <mxGeometry x="3140" y="2730" width="120" height="60" as="geometry" />
        </mxCell>
        <mxCell id="NpHVf7ny2RbtNi30LPNa-291" style="edgeStyle=orthogonalEdgeStyle;rounded=0;orthogonalLoop=1;jettySize=auto;html=1;exitX=1;exitY=0.5;exitDx=0;exitDy=0;entryX=0;entryY=0.5;entryDx=0;entryDy=0;strokeColor=default;align=center;verticalAlign=middle;fontFamily=Helvetica;fontSize=11;fontColor=default;labelBackgroundColor=default;endArrow=none;endFill=0;" edge="1" parent="1" source="NpHVf7ny2RbtNi30LPNa-294" target="NpHVf7ny2RbtNi30LPNa-290">
          <mxGeometry relative="1" as="geometry" />
        </mxCell>
        <mxCell id="NpHVf7ny2RbtNi30LPNa-292" value="(1,1)" style="edgeLabel;html=1;align=center;verticalAlign=middle;resizable=0;points=[];fontFamily=Helvetica;fontSize=11;fontColor=default;labelBackgroundColor=default;" connectable="0" vertex="1" parent="NpHVf7ny2RbtNi30LPNa-291">
          <mxGeometry x="0.6447" y="1" relative="1" as="geometry">
            <mxPoint x="-23" y="1" as="offset" />
          </mxGeometry>
        </mxCell>
        <mxCell id="NpHVf7ny2RbtNi30LPNa-294" value="Equipados" style="whiteSpace=wrap;html=1;align=center;" vertex="1" parent="1">
          <mxGeometry x="2945" y="2740" width="100" height="40" as="geometry" />
        </mxCell>
        <mxCell id="NpHVf7ny2RbtNi30LPNa-298" value="Mão direita" style="ellipse;whiteSpace=wrap;html=1;align=center;" vertex="1" parent="1">
          <mxGeometry x="2950" y="2625" width="90" height="35" as="geometry" />
        </mxCell>
        <mxCell id="NpHVf7ny2RbtNi30LPNa-299" value="Mão esquerda" style="ellipse;whiteSpace=wrap;html=1;align=center;" vertex="1" parent="1">
          <mxGeometry x="2950" y="2660" width="90" height="35" as="geometry" />
        </mxCell>
        <mxCell id="NpHVf7ny2RbtNi30LPNa-300" value="Armadura" style="ellipse;whiteSpace=wrap;html=1;align=center;" vertex="1" parent="1">
          <mxGeometry x="2950" y="2695" width="90" height="35" as="geometry" />
        </mxCell>
        <mxCell id="NpHVf7ny2RbtNi30LPNa-304" value="&lt;u&gt;id_jogador&lt;/u&gt;" style="ellipse;whiteSpace=wrap;html=1;align=center;" vertex="1" parent="1">
          <mxGeometry x="2950" y="2590" width="90" height="35" as="geometry" />
        </mxCell>
        <mxCell id="NpHVf7ny2RbtNi30LPNa-305" value="força" style="ellipse;whiteSpace=wrap;html=1;align=center;" vertex="1" parent="1">
          <mxGeometry x="1930" y="1880" width="60" height="20" as="geometry" />
        </mxCell>
        <mxCell id="NpHVf7ny2RbtNi30LPNa-306" value="destreza" style="ellipse;whiteSpace=wrap;html=1;align=center;" vertex="1" parent="1">
          <mxGeometry x="1930" y="1860" width="60" height="20" as="geometry" />
        </mxCell>
        <mxCell id="NpHVf7ny2RbtNi30LPNa-307" value="fé" style="ellipse;whiteSpace=wrap;html=1;align=center;" vertex="1" parent="1">
          <mxGeometry x="1930" y="1840" width="60" height="20" as="geometry" />
        </mxCell>
        <mxCell id="NpHVf7ny2RbtNi30LPNa-308" value="" style="endArrow=none;html=1;rounded=0;exitX=0.5;exitY=0;exitDx=0;exitDy=0;entryX=0;entryY=0.5;entryDx=0;entryDy=0;" edge="1" parent="1" target="NpHVf7ny2RbtNi30LPNa-307">
          <mxGeometry width="50" height="50" relative="1" as="geometry">
            <mxPoint x="1890" y="1826" as="sourcePoint" />
            <mxPoint x="1940" y="1760" as="targetPoint" />
          </mxGeometry>
        </mxCell>
        <mxCell id="NpHVf7ny2RbtNi30LPNa-309" value="" style="endArrow=none;html=1;rounded=0;entryX=0;entryY=0.5;entryDx=0;entryDy=0;" edge="1" parent="1" target="NpHVf7ny2RbtNi30LPNa-312">
          <mxGeometry width="50" height="50" relative="1" as="geometry">
            <mxPoint x="1890" y="1820" as="sourcePoint" />
            <mxPoint x="1960" y="1800" as="targetPoint" />
          </mxGeometry>
        </mxCell>
        <mxCell id="NpHVf7ny2RbtNi30LPNa-310" value="" style="endArrow=none;html=1;rounded=0;entryX=0;entryY=0.5;entryDx=0;entryDy=0;exitX=0.967;exitY=0.721;exitDx=0;exitDy=0;exitPerimeter=0;" edge="1" parent="1" source="NpHVf7ny2RbtNi30LPNa-182" target="NpHVf7ny2RbtNi30LPNa-306">
          <mxGeometry width="50" height="50" relative="1" as="geometry">
            <mxPoint x="1890" y="1820" as="sourcePoint" />
            <mxPoint x="2065" y="1806" as="targetPoint" />
          </mxGeometry>
        </mxCell>
        <mxCell id="NpHVf7ny2RbtNi30LPNa-311" value="" style="endArrow=none;html=1;rounded=0;entryX=0;entryY=0.5;entryDx=0;entryDy=0;" edge="1" parent="1" target="NpHVf7ny2RbtNi30LPNa-305">
          <mxGeometry width="50" height="50" relative="1" as="geometry">
            <mxPoint x="1890" y="1830" as="sourcePoint" />
            <mxPoint x="2075" y="1816" as="targetPoint" />
          </mxGeometry>
        </mxCell>
        <mxCell id="NpHVf7ny2RbtNi30LPNa-312" value="int" style="ellipse;whiteSpace=wrap;html=1;align=center;" vertex="1" parent="1">
          <mxGeometry x="1930" y="1820" width="60" height="20" as="geometry" />
        </mxCell>
        <mxCell id="NpHVf7ny2RbtNi30LPNa-313" value="&lt;b&gt;Observação&lt;/b&gt;: caso o item seja chave, ele é considerado um item chave e não pode ser um equipamento ou consumível" style="rounded=1;whiteSpace=wrap;html=1;" vertex="1" parent="1">
          <mxGeometry x="1912.5" y="1690" width="167.5" height="80" as="geometry" />
        </mxCell>
        <mxCell id="NpHVf7ny2RbtNi30LPNa-314" value="&lt;b&gt;Observação&lt;/b&gt;: Um NPC pode possuir outras funções além de inimigo, chefe e ferreiro. Por exemplo, pode ser um mercante ou um viajante." style="rounded=1;whiteSpace=wrap;html=1;" vertex="1" parent="1">
          <mxGeometry x="2390" y="2010" width="160" height="80" as="geometry" />
        </mxCell>
        <mxCell id="NpHVf7ny2RbtNi30LPNa-315" value="" style="endArrow=none;html=1;rounded=0;endFill=0;" edge="1" parent="1" target="NpHVf7ny2RbtNi30LPNa-316">
          <mxGeometry width="50" height="50" relative="1" as="geometry">
            <mxPoint x="3110" y="2030" as="sourcePoint" />
            <mxPoint x="2590" y="2030" as="targetPoint" />
            <Array as="points">
              <mxPoint x="3030" y="2030" />
              <mxPoint x="2920" y="2030" />
              <mxPoint x="2800" y="2030" />
            </Array>
          </mxGeometry>
        </mxCell>
        <mxCell id="NpHVf7ny2RbtNi30LPNa-316" value="D" style="ellipse;whiteSpace=wrap;html=1;aspect=fixed;" vertex="1" parent="1">
          <mxGeometry x="2573.75" y="2012" width="32.5" height="32.5" as="geometry" />
        </mxCell>
        <mxCell id="NpHVf7ny2RbtNi30LPNa-317" value="D" style="ellipse;whiteSpace=wrap;html=1;aspect=fixed;" vertex="1" parent="1">
          <mxGeometry x="1748.75" y="1916.5" width="32.5" height="32.5" as="geometry" />
        </mxCell>
        <mxCell id="NpHVf7ny2RbtNi30LPNa-318" value="D" style="ellipse;whiteSpace=wrap;html=1;aspect=fixed;" vertex="1" parent="1">
          <mxGeometry x="1748.75" y="2073.75" width="32.5" height="32.5" as="geometry" />
        </mxCell>
        <mxCell id="NpHVf7ny2RbtNi30LPNa-319" value="(1, N)" style="edgeLabel;html=1;align=center;verticalAlign=middle;resizable=0;points=[];" connectable="0" vertex="1" parent="1">
          <mxGeometry x="2740" y="1570" as="geometry">
            <mxPoint x="136" y="-19" as="offset" />
          </mxGeometry>
        </mxCell>
        <mxCell id="NpHVf7ny2RbtNi30LPNa-320" value="" style="edgeStyle=orthogonalEdgeStyle;rounded=0;orthogonalLoop=1;jettySize=auto;html=1;exitX=1;exitY=0.25;exitDx=0;exitDy=0;entryX=1;entryY=0.5;entryDx=0;entryDy=0;endArrow=none;endFill=0;" edge="1" parent="1" target="NpHVf7ny2RbtNi30LPNa-322">
          <mxGeometry relative="1" as="geometry">
            <mxPoint x="2764" y="1611" as="targetPoint" />
            <mxPoint x="2800" y="1610" as="sourcePoint" />
            <Array as="points">
              <mxPoint x="2860" y="1610" />
            </Array>
          </mxGeometry>
        </mxCell>
        <mxCell id="NpHVf7ny2RbtNi30LPNa-321" value="conecta à" style="edgeLabel;html=1;align=center;verticalAlign=middle;resizable=0;points=[];" connectable="0" vertex="1" parent="NpHVf7ny2RbtNi30LPNa-320">
          <mxGeometry x="-0.4483" y="1" relative="1" as="geometry">
            <mxPoint as="offset" />
          </mxGeometry>
        </mxCell>
        <mxCell id="NpHVf7ny2RbtNi30LPNa-322" value="conecta" style="shape=rhombus;perimeter=rhombusPerimeter;whiteSpace=wrap;html=1;align=center;" vertex="1" parent="1">
          <mxGeometry x="2765" y="1520" width="90" height="40" as="geometry" />
        </mxCell>
        <mxCell id="NpHVf7ny2RbtNi30LPNa-323" value="(1, N)" style="edgeLabel;html=1;align=center;verticalAlign=middle;resizable=0;points=[];" connectable="0" vertex="1" parent="1">
          <mxGeometry x="2680.0014285714287" y="1630" as="geometry">
            <mxPoint x="83" y="-63" as="offset" />
          </mxGeometry>
        </mxCell>
        <mxCell id="NpHVf7ny2RbtNi30LPNa-325" style="edgeStyle=orthogonalEdgeStyle;rounded=0;orthogonalLoop=1;jettySize=auto;html=1;exitX=0.25;exitY=0;exitDx=0;exitDy=0;entryX=0.233;entryY=0.857;entryDx=0;entryDy=0;entryPerimeter=0;endArrow=none;endFill=0;" edge="1" parent="1" source="NpHVf7ny2RbtNi30LPNa-294" target="NpHVf7ny2RbtNi30LPNa-300">
          <mxGeometry relative="1" as="geometry" />
        </mxCell>
        <mxCell id="NpHVf7ny2RbtNi30LPNa-326" value="D" style="ellipse;whiteSpace=wrap;html=1;aspect=fixed;" vertex="1" parent="1">
          <mxGeometry x="1748.75" y="1776.75" width="32.5" height="32.5" as="geometry" />
        </mxCell>
        <mxCell id="NpHVf7ny2RbtNi30LPNa-327" value="&#xa;&lt;span style=&quot;color: rgb(0, 0, 0); font-family: Helvetica; font-size: 12px; font-style: normal; font-variant-ligatures: normal; font-variant-caps: normal; font-weight: 400; letter-spacing: normal; orphans: 2; text-align: center; text-indent: 0px; text-transform: none; widows: 2; word-spacing: 0px; -webkit-text-stroke-width: 0px; white-space: nowrap; background-color: rgb(251, 251, 251); text-decoration-thickness: initial; text-decoration-style: initial; text-decoration-color: initial; display: inline !important; float: none;&quot;&gt;`não-chave`&lt;/span&gt;&#xa;&#xa;" style="text;html=1;align=center;verticalAlign=middle;resizable=0;points=[];autosize=1;strokeColor=none;fillColor=none;" vertex="1" parent="1">
          <mxGeometry x="2002.5" y="1775" width="90" height="60" as="geometry" />
        </mxCell>
      </root>
    </mxGraphModel>
  </diagram>
</mxfile>
